<mxfile host="app.diagrams.net" modified="2020-09-16T15:39:09.096Z" agent="5.0 (Windows)" etag="ZaEah7xKvEXrmFfAAGVq" version="13.7.1" type="github">
  <diagram id="gJ45XO211EHnFHJomRJo" name="RS Latch">
    <mxGraphModel dx="2773" dy="931" grid="1" gridSize="10" guides="1" tooltips="1" connect="1" arrows="1" fold="1" page="1" pageScale="1" pageWidth="1100" pageHeight="850" math="0" shadow="0">
      <root>
        <mxCell id="0" />
        <mxCell id="1" parent="0" />
        <mxCell id="zt3W5hfZDn8HCrkyYhtF-6" style="edgeStyle=orthogonalEdgeStyle;rounded=0;orthogonalLoop=1;jettySize=auto;html=1;entryX=0.13;entryY=0.5;entryDx=0;entryDy=0;entryPerimeter=0;" parent="1" source="zt3W5hfZDn8HCrkyYhtF-4" target="zt3W5hfZDn8HCrkyYhtF-5" edge="1">
          <mxGeometry relative="1" as="geometry" />
        </mxCell>
        <mxCell id="zt3W5hfZDn8HCrkyYhtF-4" value="" style="verticalLabelPosition=bottom;shadow=0;dashed=0;align=center;html=1;verticalAlign=top;shape=mxgraph.electrical.logic_gates.logic_gate;operation=and;" parent="1" vertex="1">
          <mxGeometry x="265" y="100" width="100" height="60" as="geometry" />
        </mxCell>
        <mxCell id="zt3W5hfZDn8HCrkyYhtF-5" value="" style="verticalLabelPosition=bottom;shadow=0;dashed=0;align=center;html=1;verticalAlign=top;shape=mxgraph.electrical.logic_gates.buffer2;" parent="1" vertex="1">
          <mxGeometry x="395" y="100" width="100" height="60" as="geometry" />
        </mxCell>
        <mxCell id="zt3W5hfZDn8HCrkyYhtF-23" style="edgeStyle=orthogonalEdgeStyle;rounded=0;orthogonalLoop=1;jettySize=auto;html=1;exitX=1;exitY=0.5;exitDx=0;exitDy=0;exitPerimeter=0;" parent="1" source="zt3W5hfZDn8HCrkyYhtF-7" edge="1">
          <mxGeometry relative="1" as="geometry">
            <mxPoint x="520" y="340" as="targetPoint" />
          </mxGeometry>
        </mxCell>
        <mxCell id="zt3W5hfZDn8HCrkyYhtF-25" style="edgeStyle=orthogonalEdgeStyle;rounded=0;orthogonalLoop=1;jettySize=auto;html=1;exitX=1;exitY=0.5;exitDx=0;exitDy=0;exitPerimeter=0;entryX=0;entryY=0.25;entryDx=0;entryDy=0;entryPerimeter=0;" parent="1" source="zt3W5hfZDn8HCrkyYhtF-7" target="zt3W5hfZDn8HCrkyYhtF-8" edge="1">
          <mxGeometry relative="1" as="geometry" />
        </mxCell>
        <mxCell id="zt3W5hfZDn8HCrkyYhtF-30" style="edgeStyle=orthogonalEdgeStyle;rounded=0;orthogonalLoop=1;jettySize=auto;html=1;exitX=0;exitY=0.75;exitDx=0;exitDy=0;exitPerimeter=0;endArrow=none;endFill=0;" parent="1" source="zt3W5hfZDn8HCrkyYhtF-7" edge="1">
          <mxGeometry relative="1" as="geometry">
            <mxPoint x="190" y="355" as="targetPoint" />
          </mxGeometry>
        </mxCell>
        <mxCell id="zt3W5hfZDn8HCrkyYhtF-7" value="" style="verticalLabelPosition=bottom;shadow=0;dashed=0;align=center;html=1;verticalAlign=top;shape=mxgraph.electrical.logic_gates.logic_gate;operation=and;negating=1;" parent="1" vertex="1">
          <mxGeometry x="320" y="310" width="100" height="60" as="geometry" />
        </mxCell>
        <mxCell id="zt3W5hfZDn8HCrkyYhtF-26" style="edgeStyle=orthogonalEdgeStyle;rounded=0;orthogonalLoop=1;jettySize=auto;html=1;exitX=0;exitY=0.75;exitDx=0;exitDy=0;exitPerimeter=0;endArrow=none;endFill=0;" parent="1" source="zt3W5hfZDn8HCrkyYhtF-8" edge="1">
          <mxGeometry relative="1" as="geometry">
            <mxPoint x="190" y="515" as="targetPoint" />
          </mxGeometry>
        </mxCell>
        <mxCell id="zt3W5hfZDn8HCrkyYhtF-27" value="C" style="edgeLabel;html=1;align=center;verticalAlign=middle;resizable=0;points=[];" parent="zt3W5hfZDn8HCrkyYhtF-26" vertex="1" connectable="0">
          <mxGeometry x="0.2" relative="1" as="geometry">
            <mxPoint as="offset" />
          </mxGeometry>
        </mxCell>
        <mxCell id="zt3W5hfZDn8HCrkyYhtF-28" style="edgeStyle=orthogonalEdgeStyle;rounded=0;orthogonalLoop=1;jettySize=auto;html=1;exitX=1;exitY=0.5;exitDx=0;exitDy=0;exitPerimeter=0;endArrow=none;endFill=0;" parent="1" source="zt3W5hfZDn8HCrkyYhtF-8" edge="1">
          <mxGeometry relative="1" as="geometry">
            <mxPoint x="530" y="500" as="targetPoint" />
          </mxGeometry>
        </mxCell>
        <mxCell id="zt3W5hfZDn8HCrkyYhtF-29" value="D" style="edgeLabel;html=1;align=center;verticalAlign=middle;resizable=0;points=[];" parent="zt3W5hfZDn8HCrkyYhtF-28" vertex="1" connectable="0">
          <mxGeometry x="0.7273" y="1" relative="1" as="geometry">
            <mxPoint x="15" y="1" as="offset" />
          </mxGeometry>
        </mxCell>
        <mxCell id="zt3W5hfZDn8HCrkyYhtF-8" value="" style="verticalLabelPosition=bottom;shadow=0;dashed=0;align=center;html=1;verticalAlign=top;shape=mxgraph.electrical.logic_gates.logic_gate;operation=and;negating=1;" parent="1" vertex="1">
          <mxGeometry x="320" y="470" width="100" height="60" as="geometry" />
        </mxCell>
        <mxCell id="zt3W5hfZDn8HCrkyYhtF-9" value="" style="endArrow=none;html=1;entryX=0;entryY=0.25;entryDx=0;entryDy=0;entryPerimeter=0;" parent="1" target="zt3W5hfZDn8HCrkyYhtF-4" edge="1">
          <mxGeometry width="50" height="50" relative="1" as="geometry">
            <mxPoint x="110" y="115" as="sourcePoint" />
            <mxPoint x="225" y="120" as="targetPoint" />
          </mxGeometry>
        </mxCell>
        <mxCell id="zt3W5hfZDn8HCrkyYhtF-10" value="" style="endArrow=none;html=1;entryX=0;entryY=0.25;entryDx=0;entryDy=0;entryPerimeter=0;" parent="1" target="zt3W5hfZDn8HCrkyYhtF-7" edge="1">
          <mxGeometry width="50" height="50" relative="1" as="geometry">
            <mxPoint x="190" y="325" as="sourcePoint" />
            <mxPoint x="300" y="320" as="targetPoint" />
          </mxGeometry>
        </mxCell>
        <mxCell id="zt3W5hfZDn8HCrkyYhtF-22" value="A" style="edgeLabel;html=1;align=center;verticalAlign=middle;resizable=0;points=[];" parent="zt3W5hfZDn8HCrkyYhtF-10" vertex="1" connectable="0">
          <mxGeometry x="-0.4727" relative="1" as="geometry">
            <mxPoint as="offset" />
          </mxGeometry>
        </mxCell>
        <mxCell id="zt3W5hfZDn8HCrkyYhtF-24" value="B" style="text;html=1;align=center;verticalAlign=middle;resizable=0;points=[];autosize=1;" parent="1" vertex="1">
          <mxGeometry x="520" y="330" width="20" height="20" as="geometry" />
        </mxCell>
        <mxCell id="zt3W5hfZDn8HCrkyYhtF-31" value="A" style="text;html=1;strokeColor=none;fillColor=none;align=center;verticalAlign=middle;whiteSpace=wrap;rounded=0;" parent="1" vertex="1">
          <mxGeometry x="680" y="200" width="40" height="20" as="geometry" />
        </mxCell>
        <mxCell id="zt3W5hfZDn8HCrkyYhtF-32" value="C" style="text;html=1;align=center;verticalAlign=middle;resizable=0;points=[];autosize=1;" parent="1" vertex="1">
          <mxGeometry x="730" y="200" width="20" height="20" as="geometry" />
        </mxCell>
        <mxCell id="zt3W5hfZDn8HCrkyYhtF-33" value="B" style="text;html=1;align=center;verticalAlign=middle;resizable=0;points=[];autosize=1;" parent="1" vertex="1">
          <mxGeometry x="810" y="200" width="20" height="20" as="geometry" />
        </mxCell>
        <mxCell id="zt3W5hfZDn8HCrkyYhtF-35" value="" style="endArrow=none;html=1;" parent="1" edge="1">
          <mxGeometry width="50" height="50" relative="1" as="geometry">
            <mxPoint x="680" y="219" as="sourcePoint" />
            <mxPoint x="840" y="219" as="targetPoint" />
          </mxGeometry>
        </mxCell>
        <mxCell id="zt3W5hfZDn8HCrkyYhtF-36" value="" style="endArrow=none;html=1;" parent="1" edge="1">
          <mxGeometry width="50" height="50" relative="1" as="geometry">
            <mxPoint x="780" y="360" as="sourcePoint" />
            <mxPoint x="780" y="200" as="targetPoint" />
          </mxGeometry>
        </mxCell>
        <mxCell id="zt3W5hfZDn8HCrkyYhtF-40" style="edgeStyle=orthogonalEdgeStyle;rounded=0;orthogonalLoop=1;jettySize=auto;html=1;exitX=0;exitY=0.25;exitDx=0;exitDy=0;exitPerimeter=0;endArrow=none;endFill=0;" parent="1" source="zt3W5hfZDn8HCrkyYhtF-37" edge="1">
          <mxGeometry relative="1" as="geometry">
            <mxPoint x="240" y="655" as="targetPoint" />
          </mxGeometry>
        </mxCell>
        <mxCell id="zt3W5hfZDn8HCrkyYhtF-41" style="edgeStyle=orthogonalEdgeStyle;rounded=0;orthogonalLoop=1;jettySize=auto;html=1;exitX=0;exitY=0.75;exitDx=0;exitDy=0;exitPerimeter=0;endArrow=none;endFill=0;" parent="1" source="zt3W5hfZDn8HCrkyYhtF-37" edge="1">
          <mxGeometry relative="1" as="geometry">
            <mxPoint x="240" y="685" as="targetPoint" />
          </mxGeometry>
        </mxCell>
        <mxCell id="zt3W5hfZDn8HCrkyYhtF-45" style="edgeStyle=orthogonalEdgeStyle;rounded=0;orthogonalLoop=1;jettySize=auto;html=1;exitX=1;exitY=0.5;exitDx=0;exitDy=0;exitPerimeter=0;entryX=0;entryY=0.5;entryDx=0;entryDy=0;endArrow=none;endFill=0;" parent="1" source="zt3W5hfZDn8HCrkyYhtF-37" target="zt3W5hfZDn8HCrkyYhtF-44" edge="1">
          <mxGeometry relative="1" as="geometry" />
        </mxCell>
        <mxCell id="zt3W5hfZDn8HCrkyYhtF-74" style="edgeStyle=orthogonalEdgeStyle;rounded=0;orthogonalLoop=1;jettySize=auto;html=1;exitX=0;exitY=0.75;exitDx=0;exitDy=0;exitPerimeter=0;entryX=1;entryY=0.5;entryDx=0;entryDy=0;endArrow=none;endFill=0;" parent="1" source="zt3W5hfZDn8HCrkyYhtF-37" target="zt3W5hfZDn8HCrkyYhtF-71" edge="1">
          <mxGeometry relative="1" as="geometry" />
        </mxCell>
        <mxCell id="zt3W5hfZDn8HCrkyYhtF-37" value="" style="verticalLabelPosition=bottom;shadow=0;dashed=0;align=center;html=1;verticalAlign=top;shape=mxgraph.electrical.logic_gates.logic_gate;operation=and;" parent="1" vertex="1">
          <mxGeometry x="240" y="640" width="100" height="60" as="geometry" />
        </mxCell>
        <mxCell id="zt3W5hfZDn8HCrkyYhtF-42" value="A" style="text;html=1;align=center;verticalAlign=middle;resizable=0;points=[];autosize=1;" parent="1" vertex="1">
          <mxGeometry x="220" y="640" width="20" height="20" as="geometry" />
        </mxCell>
        <mxCell id="zt3W5hfZDn8HCrkyYhtF-43" value="0" style="text;html=1;align=center;verticalAlign=middle;resizable=0;points=[];autosize=1;" parent="1" vertex="1">
          <mxGeometry x="230" y="660" width="20" height="20" as="geometry" />
        </mxCell>
        <mxCell id="zt3W5hfZDn8HCrkyYhtF-73" style="edgeStyle=orthogonalEdgeStyle;rounded=0;orthogonalLoop=1;jettySize=auto;html=1;exitX=1;exitY=0.5;exitDx=0;exitDy=0;entryX=0;entryY=0.25;entryDx=0;entryDy=0;entryPerimeter=0;endArrow=none;endFill=0;" parent="1" source="zt3W5hfZDn8HCrkyYhtF-44" target="zt3W5hfZDn8HCrkyYhtF-68" edge="1">
          <mxGeometry relative="1" as="geometry">
            <Array as="points">
              <mxPoint x="500" y="670" />
              <mxPoint x="500" y="730" />
              <mxPoint x="160" y="730" />
              <mxPoint x="160" y="775" />
            </Array>
          </mxGeometry>
        </mxCell>
        <mxCell id="zt3W5hfZDn8HCrkyYhtF-44" value="" style="verticalLabelPosition=bottom;shadow=0;dashed=0;align=center;html=1;verticalAlign=top;shape=mxgraph.electrical.logic_gates.buffer2;negating=1;" parent="1" vertex="1">
          <mxGeometry x="380" y="640" width="100" height="60" as="geometry" />
        </mxCell>
        <mxCell id="zt3W5hfZDn8HCrkyYhtF-47" value="A" style="text;html=1;align=center;verticalAlign=middle;resizable=0;points=[];autosize=1;" parent="1" vertex="1">
          <mxGeometry x="810" y="620" width="20" height="20" as="geometry" />
        </mxCell>
        <mxCell id="zt3W5hfZDn8HCrkyYhtF-48" value="C" style="text;html=1;align=center;verticalAlign=middle;resizable=0;points=[];autosize=1;" parent="1" vertex="1">
          <mxGeometry x="850" y="620" width="20" height="20" as="geometry" />
        </mxCell>
        <mxCell id="zt3W5hfZDn8HCrkyYhtF-49" value="Q" style="text;html=1;align=center;verticalAlign=middle;resizable=0;points=[];autosize=1;" parent="1" vertex="1">
          <mxGeometry x="930" y="620" width="20" height="20" as="geometry" />
        </mxCell>
        <mxCell id="zt3W5hfZDn8HCrkyYhtF-50" value="Q*" style="text;html=1;align=center;verticalAlign=middle;resizable=0;points=[];autosize=1;" parent="1" vertex="1">
          <mxGeometry x="970" y="620" width="30" height="20" as="geometry" />
        </mxCell>
        <mxCell id="zt3W5hfZDn8HCrkyYhtF-51" value="" style="endArrow=none;html=1;" parent="1" edge="1">
          <mxGeometry width="50" height="50" relative="1" as="geometry">
            <mxPoint x="780" y="640" as="sourcePoint" />
            <mxPoint x="1000" y="640" as="targetPoint" />
          </mxGeometry>
        </mxCell>
        <mxCell id="zt3W5hfZDn8HCrkyYhtF-52" value="" style="endArrow=none;html=1;" parent="1" edge="1">
          <mxGeometry width="50" height="50" relative="1" as="geometry">
            <mxPoint x="900" y="1000" as="sourcePoint" />
            <mxPoint x="900" y="605" as="targetPoint" />
          </mxGeometry>
        </mxCell>
        <mxCell id="zt3W5hfZDn8HCrkyYhtF-54" value="set" style="text;html=1;strokeColor=none;fillColor=none;align=center;verticalAlign=middle;whiteSpace=wrap;rounded=0;" parent="1" vertex="1">
          <mxGeometry x="800" y="690" width="40" height="20" as="geometry" />
        </mxCell>
        <mxCell id="zt3W5hfZDn8HCrkyYhtF-55" value="reset" style="text;html=1;strokeColor=none;fillColor=none;align=center;verticalAlign=middle;whiteSpace=wrap;rounded=0;" parent="1" vertex="1">
          <mxGeometry x="840" y="690" width="40" height="20" as="geometry" />
        </mxCell>
        <mxCell id="zt3W5hfZDn8HCrkyYhtF-57" value="1" style="text;html=1;strokeColor=none;fillColor=none;align=center;verticalAlign=middle;whiteSpace=wrap;rounded=0;" parent="1" vertex="1">
          <mxGeometry x="800" y="720" width="40" height="20" as="geometry" />
        </mxCell>
        <mxCell id="zt3W5hfZDn8HCrkyYhtF-58" value="1" style="text;html=1;align=center;verticalAlign=middle;resizable=0;points=[];autosize=1;" parent="1" vertex="1">
          <mxGeometry x="850" y="720" width="20" height="20" as="geometry" />
        </mxCell>
        <mxCell id="zt3W5hfZDn8HCrkyYhtF-59" value="0" style="text;html=1;align=center;verticalAlign=middle;resizable=0;points=[];autosize=1;" parent="1" vertex="1">
          <mxGeometry x="930" y="720" width="20" height="20" as="geometry" />
        </mxCell>
        <mxCell id="zt3W5hfZDn8HCrkyYhtF-60" value="1" style="text;html=1;align=center;verticalAlign=middle;resizable=0;points=[];autosize=1;" parent="1" vertex="1">
          <mxGeometry x="980" y="720" width="20" height="20" as="geometry" />
        </mxCell>
        <mxCell id="zt3W5hfZDn8HCrkyYhtF-61" value="1" style="text;html=1;align=center;verticalAlign=middle;resizable=0;points=[];autosize=1;" parent="1" vertex="1">
          <mxGeometry x="810" y="750" width="20" height="20" as="geometry" />
        </mxCell>
        <mxCell id="zt3W5hfZDn8HCrkyYhtF-62" value="0" style="text;html=1;align=center;verticalAlign=middle;resizable=0;points=[];autosize=1;" parent="1" vertex="1">
          <mxGeometry x="850" y="750" width="20" height="20" as="geometry" />
        </mxCell>
        <mxCell id="zt3W5hfZDn8HCrkyYhtF-63" value="0" style="text;html=1;align=center;verticalAlign=middle;resizable=0;points=[];autosize=1;" parent="1" vertex="1">
          <mxGeometry x="930" y="750" width="20" height="20" as="geometry" />
        </mxCell>
        <mxCell id="zt3W5hfZDn8HCrkyYhtF-64" value="1" style="text;html=1;align=center;verticalAlign=middle;resizable=0;points=[];autosize=1;" parent="1" vertex="1">
          <mxGeometry x="980" y="750" width="20" height="20" as="geometry" />
        </mxCell>
        <mxCell id="zt3W5hfZDn8HCrkyYhtF-67" style="edgeStyle=orthogonalEdgeStyle;rounded=0;orthogonalLoop=1;jettySize=auto;html=1;exitX=1;exitY=0.5;exitDx=0;exitDy=0;exitPerimeter=0;entryX=0;entryY=0.5;entryDx=0;entryDy=0;endArrow=none;endFill=0;" parent="1" source="zt3W5hfZDn8HCrkyYhtF-68" target="zt3W5hfZDn8HCrkyYhtF-71" edge="1">
          <mxGeometry relative="1" as="geometry" />
        </mxCell>
        <mxCell id="zt3W5hfZDn8HCrkyYhtF-68" value="" style="verticalLabelPosition=bottom;shadow=0;dashed=0;align=center;html=1;verticalAlign=top;shape=mxgraph.electrical.logic_gates.logic_gate;operation=and;" parent="1" vertex="1">
          <mxGeometry x="220" y="760" width="100" height="60" as="geometry" />
        </mxCell>
        <mxCell id="zt3W5hfZDn8HCrkyYhtF-71" value="" style="verticalLabelPosition=bottom;shadow=0;dashed=0;align=center;html=1;verticalAlign=top;shape=mxgraph.electrical.logic_gates.buffer2;negating=1;" parent="1" vertex="1">
          <mxGeometry x="395" y="780" width="100" height="60" as="geometry" />
        </mxCell>
        <mxCell id="zt3W5hfZDn8HCrkyYhtF-75" value="active low inputs" style="text;html=1;strokeColor=none;fillColor=none;align=center;verticalAlign=middle;whiteSpace=wrap;rounded=0;" parent="1" vertex="1">
          <mxGeometry x="780" y="640" width="110" height="20" as="geometry" />
        </mxCell>
        <mxCell id="zt3W5hfZDn8HCrkyYhtF-76" value="0" style="text;html=1;align=center;verticalAlign=middle;resizable=0;points=[];autosize=1;" parent="1" vertex="1">
          <mxGeometry x="810" y="780" width="20" height="20" as="geometry" />
        </mxCell>
        <mxCell id="zt3W5hfZDn8HCrkyYhtF-77" value="0" style="text;html=1;align=center;verticalAlign=middle;resizable=0;points=[];autosize=1;" parent="1" vertex="1">
          <mxGeometry x="850" y="780" width="20" height="20" as="geometry" />
        </mxCell>
        <mxCell id="zt3W5hfZDn8HCrkyYhtF-78" value="1" style="text;html=1;align=center;verticalAlign=middle;resizable=0;points=[];autosize=1;" parent="1" vertex="1">
          <mxGeometry x="930" y="780" width="20" height="20" as="geometry" />
        </mxCell>
        <mxCell id="zt3W5hfZDn8HCrkyYhtF-79" value="1" style="text;html=1;align=center;verticalAlign=middle;resizable=0;points=[];autosize=1;" parent="1" vertex="1">
          <mxGeometry x="980" y="780" width="20" height="20" as="geometry" />
        </mxCell>
        <mxCell id="zt3W5hfZDn8HCrkyYhtF-80" value="1" style="text;html=1;align=center;verticalAlign=middle;resizable=0;points=[];autosize=1;" parent="1" vertex="1">
          <mxGeometry x="810" y="810" width="20" height="20" as="geometry" />
        </mxCell>
        <mxCell id="zt3W5hfZDn8HCrkyYhtF-82" value="0" style="text;html=1;align=center;verticalAlign=middle;resizable=0;points=[];autosize=1;" parent="1" vertex="1">
          <mxGeometry x="850" y="810" width="20" height="20" as="geometry" />
        </mxCell>
        <mxCell id="zt3W5hfZDn8HCrkyYhtF-83" value="0" style="text;html=1;align=center;verticalAlign=middle;resizable=0;points=[];autosize=1;" parent="1" vertex="1">
          <mxGeometry x="930" y="810" width="20" height="20" as="geometry" />
        </mxCell>
        <mxCell id="zt3W5hfZDn8HCrkyYhtF-84" value="1" style="text;html=1;align=center;verticalAlign=middle;resizable=0;points=[];autosize=1;" parent="1" vertex="1">
          <mxGeometry x="980" y="810" width="20" height="20" as="geometry" />
        </mxCell>
        <mxCell id="zt3W5hfZDn8HCrkyYhtF-85" value="1" style="text;html=1;align=center;verticalAlign=middle;resizable=0;points=[];autosize=1;" parent="1" vertex="1">
          <mxGeometry x="930" y="860" width="20" height="20" as="geometry" />
        </mxCell>
        <mxCell id="zt3W5hfZDn8HCrkyYhtF-86" value="0" style="text;html=1;align=center;verticalAlign=middle;resizable=0;points=[];autosize=1;" parent="1" vertex="1">
          <mxGeometry x="980" y="860" width="20" height="20" as="geometry" />
        </mxCell>
        <mxCell id="zt3W5hfZDn8HCrkyYhtF-87" value="0" style="text;html=1;align=center;verticalAlign=middle;resizable=0;points=[];autosize=1;" parent="1" vertex="1">
          <mxGeometry x="810" y="860" width="20" height="20" as="geometry" />
        </mxCell>
        <mxCell id="zt3W5hfZDn8HCrkyYhtF-88" value="1" style="text;html=1;align=center;verticalAlign=middle;resizable=0;points=[];autosize=1;" parent="1" vertex="1">
          <mxGeometry x="850" y="860" width="20" height="20" as="geometry" />
        </mxCell>
        <mxCell id="zt3W5hfZDn8HCrkyYhtF-90" value="B" style="text;html=1;align=center;verticalAlign=middle;resizable=0;points=[];autosize=1;" parent="1" vertex="1">
          <mxGeometry x="930" y="590" width="20" height="20" as="geometry" />
        </mxCell>
        <mxCell id="zt3W5hfZDn8HCrkyYhtF-91" value="D" style="text;html=1;align=center;verticalAlign=middle;resizable=0;points=[];autosize=1;" parent="1" vertex="1">
          <mxGeometry x="970" y="590" width="20" height="20" as="geometry" />
        </mxCell>
        <mxCell id="zt3W5hfZDn8HCrkyYhtF-92" value="0" style="text;html=1;align=center;verticalAlign=middle;resizable=0;points=[];autosize=1;" parent="1" vertex="1">
          <mxGeometry x="330" y="670" width="20" height="20" as="geometry" />
        </mxCell>
        <mxCell id="zt3W5hfZDn8HCrkyYhtF-93" value="B" style="text;html=1;align=center;verticalAlign=middle;resizable=0;points=[];autosize=1;" parent="1" vertex="1">
          <mxGeometry x="510" y="650" width="20" height="20" as="geometry" />
        </mxCell>
        <mxCell id="zt3W5hfZDn8HCrkyYhtF-94" value="D" style="text;html=1;align=center;verticalAlign=middle;resizable=0;points=[];autosize=1;" parent="1" vertex="1">
          <mxGeometry x="510" y="820" width="20" height="20" as="geometry" />
        </mxCell>
        <mxCell id="zt3W5hfZDn8HCrkyYhtF-95" value="C" style="text;html=1;align=center;verticalAlign=middle;resizable=0;points=[];autosize=1;" parent="1" vertex="1">
          <mxGeometry x="190" y="790" width="20" height="20" as="geometry" />
        </mxCell>
        <mxCell id="zt3W5hfZDn8HCrkyYhtF-96" value="0" style="text;html=1;align=center;verticalAlign=middle;resizable=0;points=[];autosize=1;" parent="1" vertex="1">
          <mxGeometry x="220" y="690" width="20" height="20" as="geometry" />
        </mxCell>
        <mxCell id="zt3W5hfZDn8HCrkyYhtF-97" value="1" style="text;html=1;align=center;verticalAlign=middle;resizable=0;points=[];autosize=1;" parent="1" vertex="1">
          <mxGeometry x="210" y="750" width="20" height="20" as="geometry" />
        </mxCell>
        <mxCell id="zt3W5hfZDn8HCrkyYhtF-98" value="1" style="text;html=1;align=center;verticalAlign=middle;resizable=0;points=[];autosize=1;" parent="1" vertex="1">
          <mxGeometry x="190" y="810" width="20" height="20" as="geometry" />
        </mxCell>
        <mxCell id="zt3W5hfZDn8HCrkyYhtF-99" value="1" style="text;html=1;align=center;verticalAlign=middle;resizable=0;points=[];autosize=1;" parent="1" vertex="1">
          <mxGeometry x="310" y="800" width="20" height="20" as="geometry" />
        </mxCell>
        <mxCell id="zt3W5hfZDn8HCrkyYhtF-100" value="0" style="text;html=1;align=center;verticalAlign=middle;resizable=0;points=[];autosize=1;" parent="1" vertex="1">
          <mxGeometry x="470" y="820" width="20" height="20" as="geometry" />
        </mxCell>
        <mxCell id="zt3W5hfZDn8HCrkyYhtF-101" value="Q*" style="text;html=1;align=center;verticalAlign=middle;resizable=0;points=[];autosize=1;" parent="1" vertex="1">
          <mxGeometry x="480" y="780" width="30" height="20" as="geometry" />
        </mxCell>
        <mxCell id="zt3W5hfZDn8HCrkyYhtF-102" value="reset*" style="text;html=1;align=center;verticalAlign=middle;resizable=0;points=[];autosize=1;" parent="1" vertex="1">
          <mxGeometry x="145" y="810" width="50" height="20" as="geometry" />
        </mxCell>
        <mxCell id="zt3W5hfZDn8HCrkyYhtF-103" value="1" style="text;html=1;align=center;verticalAlign=middle;resizable=0;points=[];autosize=1;" parent="1" vertex="1">
          <mxGeometry x="510" y="670" width="20" height="20" as="geometry" />
        </mxCell>
        <mxCell id="zt3W5hfZDn8HCrkyYhtF-104" value="1" style="text;html=1;align=center;verticalAlign=middle;resizable=0;points=[];autosize=1;" parent="1" vertex="1">
          <mxGeometry x="810" y="890" width="20" height="20" as="geometry" />
        </mxCell>
        <mxCell id="zt3W5hfZDn8HCrkyYhtF-105" value="1" style="text;html=1;align=center;verticalAlign=middle;resizable=0;points=[];autosize=1;" parent="1" vertex="1">
          <mxGeometry x="850" y="890" width="20" height="20" as="geometry" />
        </mxCell>
        <mxCell id="zt3W5hfZDn8HCrkyYhtF-108" value="Inactive" style="text;html=1;align=center;verticalAlign=middle;resizable=0;points=[];autosize=1;" parent="1" vertex="1">
          <mxGeometry x="730" y="890" width="60" height="20" as="geometry" />
        </mxCell>
        <mxCell id="zt3W5hfZDn8HCrkyYhtF-109" value="set*" style="text;html=1;align=center;verticalAlign=middle;resizable=0;points=[];autosize=1;" parent="1" vertex="1">
          <mxGeometry x="180" y="620" width="40" height="20" as="geometry" />
        </mxCell>
        <mxCell id="zt3W5hfZDn8HCrkyYhtF-110" value="1" style="text;html=1;align=center;verticalAlign=middle;resizable=0;points=[];autosize=1;" parent="1" vertex="1">
          <mxGeometry x="930" y="890" width="20" height="20" as="geometry" />
        </mxCell>
        <mxCell id="zt3W5hfZDn8HCrkyYhtF-111" value="1" style="text;html=1;align=center;verticalAlign=middle;resizable=0;points=[];autosize=1;" parent="1" vertex="1">
          <mxGeometry x="980" y="890" width="20" height="20" as="geometry" />
        </mxCell>
        <mxCell id="zt3W5hfZDn8HCrkyYhtF-112" value="0" style="text;html=1;align=center;verticalAlign=middle;resizable=0;points=[];autosize=1;" parent="1" vertex="1">
          <mxGeometry x="930" y="920" width="20" height="20" as="geometry" />
        </mxCell>
        <mxCell id="zt3W5hfZDn8HCrkyYhtF-113" value="1" style="text;html=1;align=center;verticalAlign=middle;resizable=0;points=[];autosize=1;" parent="1" vertex="1">
          <mxGeometry x="980" y="920" width="20" height="20" as="geometry" />
        </mxCell>
        <mxCell id="zt3W5hfZDn8HCrkyYhtF-114" value="0" style="text;html=1;align=center;verticalAlign=middle;resizable=0;points=[];autosize=1;" parent="1" vertex="1">
          <mxGeometry x="850" y="920" width="20" height="20" as="geometry" />
        </mxCell>
        <mxCell id="zt3W5hfZDn8HCrkyYhtF-115" value="1" style="text;html=1;align=center;verticalAlign=middle;resizable=0;points=[];autosize=1;" parent="1" vertex="1">
          <mxGeometry x="810" y="920" width="20" height="20" as="geometry" />
        </mxCell>
        <mxCell id="zt3W5hfZDn8HCrkyYhtF-116" value="This memory will remember the previous state." style="text;html=1;align=center;verticalAlign=middle;resizable=0;points=[];autosize=1;" parent="1" vertex="1">
          <mxGeometry x="220" y="580" width="270" height="20" as="geometry" />
        </mxCell>
        <mxCell id="zt3W5hfZDn8HCrkyYhtF-117" value="" style="rounded=0;whiteSpace=wrap;html=1;" parent="1" vertex="1">
          <mxGeometry x="1530" y="190" width="120" height="110" as="geometry" />
        </mxCell>
        <mxCell id="zt3W5hfZDn8HCrkyYhtF-118" value="" style="rounded=0;whiteSpace=wrap;html=1;" parent="1" vertex="1">
          <mxGeometry x="1530" y="300" width="120" height="110" as="geometry" />
        </mxCell>
        <mxCell id="zt3W5hfZDn8HCrkyYhtF-119" value="N" style="text;html=1;align=center;verticalAlign=middle;resizable=0;points=[];autosize=1;" parent="1" vertex="1">
          <mxGeometry x="1660" y="240" width="20" height="20" as="geometry" />
        </mxCell>
        <mxCell id="zt3W5hfZDn8HCrkyYhtF-120" value="P" style="text;html=1;align=center;verticalAlign=middle;resizable=0;points=[];autosize=1;" parent="1" vertex="1">
          <mxGeometry x="1660" y="340" width="20" height="20" as="geometry" />
        </mxCell>
        <mxCell id="zt3W5hfZDn8HCrkyYhtF-121" value="e" style="text;html=1;align=center;verticalAlign=middle;resizable=0;points=[];autosize=1;" parent="1" vertex="1">
          <mxGeometry x="1570" y="280" width="20" height="20" as="geometry" />
        </mxCell>
        <mxCell id="zt3W5hfZDn8HCrkyYhtF-122" value="e" style="text;html=1;align=center;verticalAlign=middle;resizable=0;points=[];autosize=1;" parent="1" vertex="1">
          <mxGeometry x="1600" y="260" width="20" height="20" as="geometry" />
        </mxCell>
        <mxCell id="zt3W5hfZDn8HCrkyYhtF-123" value="e" style="text;html=1;align=center;verticalAlign=middle;resizable=0;points=[];autosize=1;" parent="1" vertex="1">
          <mxGeometry x="1620" y="270" width="20" height="20" as="geometry" />
        </mxCell>
        <mxCell id="zt3W5hfZDn8HCrkyYhtF-124" value="e" style="text;html=1;align=center;verticalAlign=middle;resizable=0;points=[];autosize=1;" parent="1" vertex="1">
          <mxGeometry x="1590" y="250" width="20" height="20" as="geometry" />
        </mxCell>
        <mxCell id="zt3W5hfZDn8HCrkyYhtF-125" value="e" style="text;html=1;align=center;verticalAlign=middle;resizable=0;points=[];autosize=1;rotation=0;" parent="1" vertex="1">
          <mxGeometry x="1570" y="200" width="20" height="20" as="geometry" />
        </mxCell>
        <mxCell id="zt3W5hfZDn8HCrkyYhtF-126" value="e" style="text;html=1;align=center;verticalAlign=middle;resizable=0;points=[];autosize=1;" parent="1" vertex="1">
          <mxGeometry x="1580" y="280" width="20" height="20" as="geometry" />
        </mxCell>
        <mxCell id="zt3W5hfZDn8HCrkyYhtF-127" value="e" style="text;html=1;align=center;verticalAlign=middle;resizable=0;points=[];autosize=1;" parent="1" vertex="1">
          <mxGeometry x="1540" y="200" width="20" height="20" as="geometry" />
        </mxCell>
        <mxCell id="zt3W5hfZDn8HCrkyYhtF-128" value="" style="ellipse;whiteSpace=wrap;html=1;aspect=fixed;" parent="1" vertex="1">
          <mxGeometry x="1540" y="310" width="20" height="20" as="geometry" />
        </mxCell>
        <mxCell id="zt3W5hfZDn8HCrkyYhtF-130" value="" style="ellipse;whiteSpace=wrap;html=1;aspect=fixed;" parent="1" vertex="1">
          <mxGeometry x="1540" y="370" width="20" height="20" as="geometry" />
        </mxCell>
        <mxCell id="zt3W5hfZDn8HCrkyYhtF-131" value="" style="ellipse;whiteSpace=wrap;html=1;aspect=fixed;" parent="1" vertex="1">
          <mxGeometry x="1610" y="360" width="20" height="20" as="geometry" />
        </mxCell>
        <mxCell id="zt3W5hfZDn8HCrkyYhtF-133" style="edgeStyle=orthogonalEdgeStyle;rounded=0;orthogonalLoop=1;jettySize=auto;html=1;exitX=1;exitY=0;exitDx=0;exitDy=0;entryX=1;entryY=0.5;entryDx=0;entryDy=0;endArrow=none;endFill=0;" parent="1" source="zt3W5hfZDn8HCrkyYhtF-131" target="zt3W5hfZDn8HCrkyYhtF-131" edge="1">
          <mxGeometry relative="1" as="geometry" />
        </mxCell>
        <mxCell id="zt3W5hfZDn8HCrkyYhtF-134" value="" style="ellipse;whiteSpace=wrap;html=1;aspect=fixed;" parent="1" vertex="1">
          <mxGeometry x="1570" y="330" width="20" height="20" as="geometry" />
        </mxCell>
        <mxCell id="zt3W5hfZDn8HCrkyYhtF-135" value="" style="ellipse;whiteSpace=wrap;html=1;aspect=fixed;" parent="1" vertex="1">
          <mxGeometry x="1590" y="310" width="20" height="20" as="geometry" />
        </mxCell>
        <mxCell id="zt3W5hfZDn8HCrkyYhtF-136" value="" style="ellipse;whiteSpace=wrap;html=1;aspect=fixed;" parent="1" vertex="1">
          <mxGeometry x="1580" y="370" width="20" height="20" as="geometry" />
        </mxCell>
        <mxCell id="zt3W5hfZDn8HCrkyYhtF-137" value="" style="rounded=0;whiteSpace=wrap;html=1;" parent="1" vertex="1">
          <mxGeometry x="1350" y="220" width="60" height="160" as="geometry" />
        </mxCell>
        <mxCell id="zt3W5hfZDn8HCrkyYhtF-138" value="" style="endArrow=none;html=1;entryX=1;entryY=0.5;entryDx=0;entryDy=0;exitX=0;exitY=0.5;exitDx=0;exitDy=0;" parent="1" source="zt3W5hfZDn8HCrkyYhtF-137" target="zt3W5hfZDn8HCrkyYhtF-137" edge="1">
          <mxGeometry width="50" height="50" relative="1" as="geometry">
            <mxPoint x="1350" y="320" as="sourcePoint" />
            <mxPoint x="1400" y="270" as="targetPoint" />
          </mxGeometry>
        </mxCell>
        <mxCell id="zt3W5hfZDn8HCrkyYhtF-139" value="e" style="text;html=1;align=center;verticalAlign=middle;resizable=0;points=[];autosize=1;" parent="1" vertex="1">
          <mxGeometry x="1360" y="240" width="20" height="20" as="geometry" />
        </mxCell>
        <mxCell id="zt3W5hfZDn8HCrkyYhtF-140" value="e" style="text;html=1;align=center;verticalAlign=middle;resizable=0;points=[];autosize=1;" parent="1" vertex="1">
          <mxGeometry x="1380" y="220" width="20" height="20" as="geometry" />
        </mxCell>
        <mxCell id="zt3W5hfZDn8HCrkyYhtF-141" value="e" style="text;html=1;align=center;verticalAlign=middle;resizable=0;points=[];autosize=1;" parent="1" vertex="1">
          <mxGeometry x="1360" y="220" width="20" height="20" as="geometry" />
        </mxCell>
        <mxCell id="zt3W5hfZDn8HCrkyYhtF-142" value="e" style="text;html=1;align=center;verticalAlign=middle;resizable=0;points=[];autosize=1;" parent="1" vertex="1">
          <mxGeometry x="1380" y="250" width="20" height="20" as="geometry" />
        </mxCell>
        <mxCell id="zt3W5hfZDn8HCrkyYhtF-143" value="e" style="text;html=1;align=center;verticalAlign=middle;resizable=0;points=[];autosize=1;" parent="1" vertex="1">
          <mxGeometry x="1350" y="260" width="20" height="20" as="geometry" />
        </mxCell>
        <mxCell id="zt3W5hfZDn8HCrkyYhtF-144" value="e" style="text;html=1;align=center;verticalAlign=middle;resizable=0;points=[];autosize=1;" parent="1" vertex="1">
          <mxGeometry x="1380" y="240" width="20" height="20" as="geometry" />
        </mxCell>
        <mxCell id="zt3W5hfZDn8HCrkyYhtF-145" value="e" style="text;html=1;align=center;verticalAlign=middle;resizable=0;points=[];autosize=1;" parent="1" vertex="1">
          <mxGeometry x="1630" y="260" width="20" height="20" as="geometry" />
        </mxCell>
        <mxCell id="zt3W5hfZDn8HCrkyYhtF-146" value="e" style="text;html=1;align=center;verticalAlign=middle;resizable=0;points=[];autosize=1;" parent="1" vertex="1">
          <mxGeometry x="1370" y="280" width="20" height="20" as="geometry" />
        </mxCell>
        <mxCell id="zt3W5hfZDn8HCrkyYhtF-147" value="e" style="text;html=1;align=center;verticalAlign=middle;resizable=0;points=[];autosize=1;" parent="1" vertex="1">
          <mxGeometry x="1370" y="260" width="20" height="20" as="geometry" />
        </mxCell>
        <mxCell id="zt3W5hfZDn8HCrkyYhtF-148" value="e" style="text;html=1;align=center;verticalAlign=middle;resizable=0;points=[];autosize=1;" parent="1" vertex="1">
          <mxGeometry x="1370" y="345" width="20" height="20" as="geometry" />
        </mxCell>
        <mxCell id="zt3W5hfZDn8HCrkyYhtF-149" value="" style="endArrow=none;html=1;entryX=0.5;entryY=0;entryDx=0;entryDy=0;" parent="1" target="zt3W5hfZDn8HCrkyYhtF-117" edge="1">
          <mxGeometry width="50" height="50" relative="1" as="geometry">
            <mxPoint x="1380" y="220" as="sourcePoint" />
            <mxPoint x="1550" y="100" as="targetPoint" />
            <Array as="points">
              <mxPoint x="1460" y="80" />
            </Array>
          </mxGeometry>
        </mxCell>
        <mxCell id="zt3W5hfZDn8HCrkyYhtF-150" value="" style="endArrow=none;html=1;exitX=0.5;exitY=1;exitDx=0;exitDy=0;" parent="1" source="zt3W5hfZDn8HCrkyYhtF-137" edge="1">
          <mxGeometry width="50" height="50" relative="1" as="geometry">
            <mxPoint x="1430" y="490" as="sourcePoint" />
            <mxPoint x="1590" y="410" as="targetPoint" />
            <Array as="points">
              <mxPoint x="1530" y="520" />
            </Array>
          </mxGeometry>
        </mxCell>
        <mxCell id="zt3W5hfZDn8HCrkyYhtF-152" value="When connected to a battery, the electrons will jump to fill up a hole on the other side." style="text;html=1;align=center;verticalAlign=middle;resizable=0;points=[];autosize=1;" parent="1" vertex="1">
          <mxGeometry x="1570" y="150" width="480" height="20" as="geometry" />
        </mxCell>
        <mxCell id="zt3W5hfZDn8HCrkyYhtF-153" value="This causes the electrons to move further into the wire." style="text;html=1;strokeColor=none;fillColor=none;align=center;verticalAlign=middle;whiteSpace=wrap;rounded=0;" parent="1" vertex="1">
          <mxGeometry x="1580" y="425" width="330" height="20" as="geometry" />
        </mxCell>
        <mxCell id="zt3W5hfZDn8HCrkyYhtF-155" value="This causes the battery to fill with electrons" style="text;html=1;align=center;verticalAlign=middle;resizable=0;points=[];autosize=1;" parent="1" vertex="1">
          <mxGeometry x="1100" y="340" width="250" height="20" as="geometry" />
        </mxCell>
        <mxCell id="zt3W5hfZDn8HCrkyYhtF-156" value="Electrons circle upwards, through the wire." style="text;html=1;align=center;verticalAlign=middle;resizable=0;points=[];autosize=1;" parent="1" vertex="1">
          <mxGeometry x="1100" y="250" width="250" height="20" as="geometry" />
        </mxCell>
        <mxCell id="zt3W5hfZDn8HCrkyYhtF-157" style="edgeStyle=orthogonalEdgeStyle;rounded=0;orthogonalLoop=1;jettySize=auto;html=1;exitX=1;exitY=0.5;exitDx=0;exitDy=0;exitPerimeter=0;" parent="1" source="zt3W5hfZDn8HCrkyYhtF-160" edge="1">
          <mxGeometry relative="1" as="geometry">
            <mxPoint x="715" y="1200" as="targetPoint" />
          </mxGeometry>
        </mxCell>
        <mxCell id="zt3W5hfZDn8HCrkyYhtF-158" style="edgeStyle=orthogonalEdgeStyle;rounded=0;orthogonalLoop=1;jettySize=auto;html=1;exitX=1;exitY=0.5;exitDx=0;exitDy=0;exitPerimeter=0;entryX=0;entryY=0.25;entryDx=0;entryDy=0;entryPerimeter=0;" parent="1" source="zt3W5hfZDn8HCrkyYhtF-160" target="zt3W5hfZDn8HCrkyYhtF-165" edge="1">
          <mxGeometry relative="1" as="geometry" />
        </mxCell>
        <mxCell id="zt3W5hfZDn8HCrkyYhtF-170" style="edgeStyle=orthogonalEdgeStyle;rounded=0;orthogonalLoop=1;jettySize=auto;html=1;exitX=0;exitY=0.75;exitDx=0;exitDy=0;exitPerimeter=0;endArrow=none;endFill=0;" parent="1" source="zt3W5hfZDn8HCrkyYhtF-160" edge="1">
          <mxGeometry relative="1" as="geometry">
            <mxPoint x="680" y="1360" as="targetPoint" />
            <Array as="points">
              <mxPoint x="460" y="1215" />
              <mxPoint x="460" y="1295" />
              <mxPoint x="680" y="1295" />
            </Array>
          </mxGeometry>
        </mxCell>
        <mxCell id="zt3W5hfZDn8HCrkyYhtF-160" value="" style="verticalLabelPosition=bottom;shadow=0;dashed=0;align=center;html=1;verticalAlign=top;shape=mxgraph.electrical.logic_gates.logic_gate;operation=and;negating=1;" parent="1" vertex="1">
          <mxGeometry x="515" y="1170" width="100" height="60" as="geometry" />
        </mxCell>
        <mxCell id="zt3W5hfZDn8HCrkyYhtF-163" style="edgeStyle=orthogonalEdgeStyle;rounded=0;orthogonalLoop=1;jettySize=auto;html=1;exitX=1;exitY=0.5;exitDx=0;exitDy=0;exitPerimeter=0;endArrow=none;endFill=0;" parent="1" source="zt3W5hfZDn8HCrkyYhtF-165" edge="1">
          <mxGeometry relative="1" as="geometry">
            <mxPoint x="725" y="1360" as="targetPoint" />
          </mxGeometry>
        </mxCell>
        <mxCell id="zt3W5hfZDn8HCrkyYhtF-164" value="Q*" style="edgeLabel;html=1;align=center;verticalAlign=middle;resizable=0;points=[];" parent="zt3W5hfZDn8HCrkyYhtF-163" vertex="1" connectable="0">
          <mxGeometry x="0.7273" y="1" relative="1" as="geometry">
            <mxPoint x="19" y="-9" as="offset" />
          </mxGeometry>
        </mxCell>
        <mxCell id="zt3W5hfZDn8HCrkyYhtF-176" style="edgeStyle=orthogonalEdgeStyle;rounded=0;orthogonalLoop=1;jettySize=auto;html=1;exitX=0;exitY=0.75;exitDx=0;exitDy=0;exitPerimeter=0;endArrow=none;endFill=0;entryX=1;entryY=0.5;entryDx=0;entryDy=0;entryPerimeter=0;" parent="1" source="zt3W5hfZDn8HCrkyYhtF-165" target="zt3W5hfZDn8HCrkyYhtF-181" edge="1">
          <mxGeometry relative="1" as="geometry">
            <mxPoint x="440" y="1375" as="targetPoint" />
          </mxGeometry>
        </mxCell>
        <mxCell id="zt3W5hfZDn8HCrkyYhtF-165" value="" style="verticalLabelPosition=bottom;shadow=0;dashed=0;align=center;html=1;verticalAlign=top;shape=mxgraph.electrical.logic_gates.logic_gate;operation=and;negating=1;" parent="1" vertex="1">
          <mxGeometry x="510" y="1330" width="100" height="60" as="geometry" />
        </mxCell>
        <mxCell id="zt3W5hfZDn8HCrkyYhtF-166" value="" style="endArrow=none;html=1;entryX=0;entryY=0.25;entryDx=0;entryDy=0;entryPerimeter=0;exitX=1;exitY=0.5;exitDx=0;exitDy=0;exitPerimeter=0;" parent="1" source="zt3W5hfZDn8HCrkyYhtF-182" target="zt3W5hfZDn8HCrkyYhtF-160" edge="1">
          <mxGeometry width="50" height="50" relative="1" as="geometry">
            <mxPoint x="385" y="1185" as="sourcePoint" />
            <mxPoint x="495" y="1180" as="targetPoint" />
          </mxGeometry>
        </mxCell>
        <mxCell id="zt3W5hfZDn8HCrkyYhtF-167" value="S*" style="edgeLabel;html=1;align=center;verticalAlign=middle;resizable=0;points=[];" parent="zt3W5hfZDn8HCrkyYhtF-166" vertex="1" connectable="0">
          <mxGeometry x="-0.4727" relative="1" as="geometry">
            <mxPoint as="offset" />
          </mxGeometry>
        </mxCell>
        <mxCell id="zt3W5hfZDn8HCrkyYhtF-168" value="Q" style="text;html=1;align=center;verticalAlign=middle;resizable=0;points=[];autosize=1;" parent="1" vertex="1">
          <mxGeometry x="715" y="1190" width="20" height="20" as="geometry" />
        </mxCell>
        <mxCell id="zt3W5hfZDn8HCrkyYhtF-169" value="1" style="text;html=1;align=center;verticalAlign=middle;resizable=0;points=[];autosize=1;" parent="1" vertex="1">
          <mxGeometry x="345" y="1160" width="20" height="20" as="geometry" />
        </mxCell>
        <mxCell id="zt3W5hfZDn8HCrkyYhtF-171" value="1" style="text;html=1;align=center;verticalAlign=middle;resizable=0;points=[];autosize=1;" parent="1" vertex="1">
          <mxGeometry x="600" y="1360" width="20" height="20" as="geometry" />
        </mxCell>
        <mxCell id="zt3W5hfZDn8HCrkyYhtF-172" value="0" style="text;html=1;align=center;verticalAlign=middle;resizable=0;points=[];autosize=1;" parent="1" vertex="1">
          <mxGeometry x="610" y="1210" width="20" height="20" as="geometry" />
        </mxCell>
        <mxCell id="zt3W5hfZDn8HCrkyYhtF-173" value="S" style="text;html=1;align=center;verticalAlign=middle;resizable=0;points=[];autosize=1;" parent="1" vertex="1">
          <mxGeometry x="810" y="950" width="20" height="20" as="geometry" />
        </mxCell>
        <mxCell id="zt3W5hfZDn8HCrkyYhtF-174" value="R" style="text;html=1;align=center;verticalAlign=middle;resizable=0;points=[];autosize=1;" parent="1" vertex="1">
          <mxGeometry x="850" y="950" width="20" height="20" as="geometry" />
        </mxCell>
        <mxCell id="zt3W5hfZDn8HCrkyYhtF-178" value="0" style="text;html=1;align=center;verticalAlign=middle;resizable=0;points=[];autosize=1;" parent="1" vertex="1">
          <mxGeometry x="420" y="1380" width="20" height="20" as="geometry" />
        </mxCell>
        <mxCell id="zt3W5hfZDn8HCrkyYhtF-179" value="R*" style="text;html=1;align=center;verticalAlign=middle;resizable=0;points=[];autosize=1;" parent="1" vertex="1">
          <mxGeometry x="415" y="1360" width="30" height="20" as="geometry" />
        </mxCell>
        <mxCell id="zt3W5hfZDn8HCrkyYhtF-180" value="1" style="text;html=1;align=center;verticalAlign=middle;resizable=0;points=[];autosize=1;" parent="1" vertex="1">
          <mxGeometry x="470" y="1200" width="20" height="20" as="geometry" />
        </mxCell>
        <mxCell id="zt3W5hfZDn8HCrkyYhtF-181" value="" style="verticalLabelPosition=bottom;shadow=0;dashed=0;align=center;html=1;verticalAlign=top;shape=mxgraph.electrical.logic_gates.logic_gate;operation=and;negating=1;" parent="1" vertex="1">
          <mxGeometry x="250" y="1350" width="100" height="60" as="geometry" />
        </mxCell>
        <mxCell id="zt3W5hfZDn8HCrkyYhtF-185" style="edgeStyle=orthogonalEdgeStyle;rounded=0;orthogonalLoop=1;jettySize=auto;html=1;exitX=0;exitY=0.75;exitDx=0;exitDy=0;exitPerimeter=0;entryX=0;entryY=0.25;entryDx=0;entryDy=0;entryPerimeter=0;endArrow=none;endFill=0;" parent="1" source="zt3W5hfZDn8HCrkyYhtF-182" target="zt3W5hfZDn8HCrkyYhtF-181" edge="1">
          <mxGeometry relative="1" as="geometry">
            <Array as="points">
              <mxPoint x="210" y="1195" />
              <mxPoint x="210" y="1365" />
            </Array>
          </mxGeometry>
        </mxCell>
        <mxCell id="zt3W5hfZDn8HCrkyYhtF-182" value="" style="verticalLabelPosition=bottom;shadow=0;dashed=0;align=center;html=1;verticalAlign=top;shape=mxgraph.electrical.logic_gates.logic_gate;operation=and;negating=1;" parent="1" vertex="1">
          <mxGeometry x="250" y="1150" width="100" height="60" as="geometry" />
        </mxCell>
        <mxCell id="zt3W5hfZDn8HCrkyYhtF-184" value="S" style="text;html=1;align=center;verticalAlign=middle;resizable=0;points=[];autosize=1;" parent="1" vertex="1">
          <mxGeometry x="230" y="1150" width="20" height="20" as="geometry" />
        </mxCell>
        <mxCell id="zt3W5hfZDn8HCrkyYhtF-186" value="R" style="text;html=1;align=center;verticalAlign=middle;resizable=0;points=[];autosize=1;" parent="1" vertex="1">
          <mxGeometry x="230" y="1380" width="20" height="20" as="geometry" />
        </mxCell>
        <mxCell id="zt3W5hfZDn8HCrkyYhtF-187" value="" style="endArrow=none;html=1;" parent="1" edge="1">
          <mxGeometry width="50" height="50" relative="1" as="geometry">
            <mxPoint x="140" y="1285" as="sourcePoint" />
            <mxPoint x="210" y="1285" as="targetPoint" />
            <Array as="points" />
          </mxGeometry>
        </mxCell>
        <mxCell id="zt3W5hfZDn8HCrkyYhtF-188" value="E" style="text;html=1;align=center;verticalAlign=middle;resizable=0;points=[];autosize=1;" parent="1" vertex="1">
          <mxGeometry x="120" y="1275" width="20" height="20" as="geometry" />
        </mxCell>
        <mxCell id="zt3W5hfZDn8HCrkyYhtF-189" value="&lt;div&gt;E for Enable, or CLK for Clock&lt;/div&gt;" style="text;html=1;align=center;verticalAlign=middle;resizable=0;points=[];autosize=1;" parent="1" vertex="1">
          <mxGeometry y="1300" width="180" height="20" as="geometry" />
        </mxCell>
        <mxCell id="zt3W5hfZDn8HCrkyYhtF-190" value="A" style="text;html=1;strokeColor=none;fillColor=none;align=center;verticalAlign=middle;whiteSpace=wrap;rounded=0;" parent="1" vertex="1">
          <mxGeometry x="415" y="1450" width="40" height="20" as="geometry" />
        </mxCell>
        <mxCell id="zt3W5hfZDn8HCrkyYhtF-191" value="C" style="text;html=1;align=center;verticalAlign=middle;resizable=0;points=[];autosize=1;" parent="1" vertex="1">
          <mxGeometry x="465" y="1450" width="20" height="20" as="geometry" />
        </mxCell>
        <mxCell id="zt3W5hfZDn8HCrkyYhtF-192" value="AND" style="text;html=1;align=center;verticalAlign=middle;resizable=0;points=[];autosize=1;" parent="1" vertex="1">
          <mxGeometry x="495" y="1450" width="40" height="20" as="geometry" />
        </mxCell>
        <mxCell id="zt3W5hfZDn8HCrkyYhtF-193" value="" style="endArrow=none;html=1;" parent="1" edge="1">
          <mxGeometry width="50" height="50" relative="1" as="geometry">
            <mxPoint x="405" y="1469" as="sourcePoint" />
            <mxPoint x="535" y="1469" as="targetPoint" />
          </mxGeometry>
        </mxCell>
        <mxCell id="zt3W5hfZDn8HCrkyYhtF-194" value="" style="endArrow=none;html=1;" parent="1" edge="1">
          <mxGeometry width="50" height="50" relative="1" as="geometry">
            <mxPoint x="495" y="1610" as="sourcePoint" />
            <mxPoint x="495" y="1450" as="targetPoint" />
          </mxGeometry>
        </mxCell>
        <mxCell id="zt3W5hfZDn8HCrkyYhtF-195" value="0" style="text;html=1;align=center;verticalAlign=middle;resizable=0;points=[];autosize=1;" parent="1" vertex="1">
          <mxGeometry x="425" y="1470" width="20" height="20" as="geometry" />
        </mxCell>
        <mxCell id="zt3W5hfZDn8HCrkyYhtF-196" value="0" style="text;html=1;align=center;verticalAlign=middle;resizable=0;points=[];autosize=1;" parent="1" vertex="1">
          <mxGeometry x="465" y="1470" width="20" height="20" as="geometry" />
        </mxCell>
        <mxCell id="zt3W5hfZDn8HCrkyYhtF-197" value="0" style="text;html=1;align=center;verticalAlign=middle;resizable=0;points=[];autosize=1;" parent="1" vertex="1">
          <mxGeometry x="505" y="1470" width="20" height="20" as="geometry" />
        </mxCell>
        <mxCell id="zt3W5hfZDn8HCrkyYhtF-198" value="0" style="text;html=1;align=center;verticalAlign=middle;resizable=0;points=[];autosize=1;" parent="1" vertex="1">
          <mxGeometry x="425" y="1500" width="20" height="20" as="geometry" />
        </mxCell>
        <mxCell id="zt3W5hfZDn8HCrkyYhtF-199" value="1" style="text;html=1;align=center;verticalAlign=middle;resizable=0;points=[];autosize=1;" parent="1" vertex="1">
          <mxGeometry x="425" y="1530" width="20" height="20" as="geometry" />
        </mxCell>
        <mxCell id="zt3W5hfZDn8HCrkyYhtF-200" value="1" style="text;html=1;align=center;verticalAlign=middle;resizable=0;points=[];autosize=1;" parent="1" vertex="1">
          <mxGeometry x="425" y="1560" width="20" height="20" as="geometry" />
        </mxCell>
        <mxCell id="zt3W5hfZDn8HCrkyYhtF-201" value="0" style="text;html=1;align=center;verticalAlign=middle;resizable=0;points=[];autosize=1;" parent="1" vertex="1">
          <mxGeometry x="465" y="1530" width="20" height="20" as="geometry" />
        </mxCell>
        <mxCell id="zt3W5hfZDn8HCrkyYhtF-202" value="1" style="text;html=1;align=center;verticalAlign=middle;resizable=0;points=[];autosize=1;" parent="1" vertex="1">
          <mxGeometry x="465" y="1560" width="20" height="20" as="geometry" />
        </mxCell>
        <mxCell id="zt3W5hfZDn8HCrkyYhtF-203" value="1" style="text;html=1;align=center;verticalAlign=middle;resizable=0;points=[];autosize=1;" parent="1" vertex="1">
          <mxGeometry x="465" y="1500" width="20" height="20" as="geometry" />
        </mxCell>
        <mxCell id="zt3W5hfZDn8HCrkyYhtF-204" value="0" style="text;html=1;align=center;verticalAlign=middle;resizable=0;points=[];autosize=1;" parent="1" vertex="1">
          <mxGeometry x="505" y="1500" width="20" height="20" as="geometry" />
        </mxCell>
        <mxCell id="zt3W5hfZDn8HCrkyYhtF-205" value="0" style="text;html=1;align=center;verticalAlign=middle;resizable=0;points=[];autosize=1;" parent="1" vertex="1">
          <mxGeometry x="505" y="1530" width="20" height="20" as="geometry" />
        </mxCell>
        <mxCell id="zt3W5hfZDn8HCrkyYhtF-206" value="1" style="text;html=1;align=center;verticalAlign=middle;resizable=0;points=[];autosize=1;" parent="1" vertex="1">
          <mxGeometry x="505" y="1560" width="20" height="20" as="geometry" />
        </mxCell>
        <mxCell id="zt3W5hfZDn8HCrkyYhtF-207" value="A" style="text;html=1;strokeColor=none;fillColor=none;align=center;verticalAlign=middle;whiteSpace=wrap;rounded=0;" parent="1" vertex="1">
          <mxGeometry x="630" y="1450" width="40" height="20" as="geometry" />
        </mxCell>
        <mxCell id="zt3W5hfZDn8HCrkyYhtF-208" value="C" style="text;html=1;align=center;verticalAlign=middle;resizable=0;points=[];autosize=1;" parent="1" vertex="1">
          <mxGeometry x="680" y="1450" width="20" height="20" as="geometry" />
        </mxCell>
        <mxCell id="zt3W5hfZDn8HCrkyYhtF-209" value="NAND" style="text;html=1;align=center;verticalAlign=middle;resizable=0;points=[];autosize=1;" parent="1" vertex="1">
          <mxGeometry x="705" y="1450" width="50" height="20" as="geometry" />
        </mxCell>
        <mxCell id="zt3W5hfZDn8HCrkyYhtF-210" value="" style="endArrow=none;html=1;" parent="1" edge="1">
          <mxGeometry width="50" height="50" relative="1" as="geometry">
            <mxPoint x="620" y="1469" as="sourcePoint" />
            <mxPoint x="750" y="1469" as="targetPoint" />
          </mxGeometry>
        </mxCell>
        <mxCell id="zt3W5hfZDn8HCrkyYhtF-211" value="" style="endArrow=none;html=1;" parent="1" edge="1">
          <mxGeometry width="50" height="50" relative="1" as="geometry">
            <mxPoint x="710" y="1610" as="sourcePoint" />
            <mxPoint x="710" y="1450" as="targetPoint" />
          </mxGeometry>
        </mxCell>
        <mxCell id="zt3W5hfZDn8HCrkyYhtF-212" value="0" style="text;html=1;align=center;verticalAlign=middle;resizable=0;points=[];autosize=1;" parent="1" vertex="1">
          <mxGeometry x="640" y="1470" width="20" height="20" as="geometry" />
        </mxCell>
        <mxCell id="zt3W5hfZDn8HCrkyYhtF-213" value="0" style="text;html=1;align=center;verticalAlign=middle;resizable=0;points=[];autosize=1;" parent="1" vertex="1">
          <mxGeometry x="680" y="1470" width="20" height="20" as="geometry" />
        </mxCell>
        <mxCell id="zt3W5hfZDn8HCrkyYhtF-214" value="1" style="text;html=1;align=center;verticalAlign=middle;resizable=0;points=[];autosize=1;" parent="1" vertex="1">
          <mxGeometry x="720" y="1470" width="20" height="20" as="geometry" />
        </mxCell>
        <mxCell id="zt3W5hfZDn8HCrkyYhtF-215" value="0" style="text;html=1;align=center;verticalAlign=middle;resizable=0;points=[];autosize=1;" parent="1" vertex="1">
          <mxGeometry x="640" y="1500" width="20" height="20" as="geometry" />
        </mxCell>
        <mxCell id="zt3W5hfZDn8HCrkyYhtF-216" value="1" style="text;html=1;align=center;verticalAlign=middle;resizable=0;points=[];autosize=1;" parent="1" vertex="1">
          <mxGeometry x="640" y="1530" width="20" height="20" as="geometry" />
        </mxCell>
        <mxCell id="zt3W5hfZDn8HCrkyYhtF-217" value="1" style="text;html=1;align=center;verticalAlign=middle;resizable=0;points=[];autosize=1;" parent="1" vertex="1">
          <mxGeometry x="640" y="1560" width="20" height="20" as="geometry" />
        </mxCell>
        <mxCell id="zt3W5hfZDn8HCrkyYhtF-218" value="0" style="text;html=1;align=center;verticalAlign=middle;resizable=0;points=[];autosize=1;" parent="1" vertex="1">
          <mxGeometry x="680" y="1530" width="20" height="20" as="geometry" />
        </mxCell>
        <mxCell id="zt3W5hfZDn8HCrkyYhtF-219" value="1" style="text;html=1;align=center;verticalAlign=middle;resizable=0;points=[];autosize=1;" parent="1" vertex="1">
          <mxGeometry x="680" y="1560" width="20" height="20" as="geometry" />
        </mxCell>
        <mxCell id="zt3W5hfZDn8HCrkyYhtF-220" value="1" style="text;html=1;align=center;verticalAlign=middle;resizable=0;points=[];autosize=1;" parent="1" vertex="1">
          <mxGeometry x="680" y="1500" width="20" height="20" as="geometry" />
        </mxCell>
        <mxCell id="zt3W5hfZDn8HCrkyYhtF-221" value="1" style="text;html=1;align=center;verticalAlign=middle;resizable=0;points=[];autosize=1;" parent="1" vertex="1">
          <mxGeometry x="720" y="1500" width="20" height="20" as="geometry" />
        </mxCell>
        <mxCell id="zt3W5hfZDn8HCrkyYhtF-222" value="1" style="text;html=1;align=center;verticalAlign=middle;resizable=0;points=[];autosize=1;" parent="1" vertex="1">
          <mxGeometry x="720" y="1530" width="20" height="20" as="geometry" />
        </mxCell>
        <mxCell id="zt3W5hfZDn8HCrkyYhtF-223" value="0" style="text;html=1;align=center;verticalAlign=middle;resizable=0;points=[];autosize=1;" parent="1" vertex="1">
          <mxGeometry x="720" y="1560" width="20" height="20" as="geometry" />
        </mxCell>
        <mxCell id="zt3W5hfZDn8HCrkyYhtF-224" value="If control is true, the output is not the input." style="text;html=1;align=center;verticalAlign=middle;resizable=0;points=[];autosize=1;" parent="1" vertex="1">
          <mxGeometry x="580" y="1420" width="240" height="20" as="geometry" />
        </mxCell>
        <mxCell id="zt3W5hfZDn8HCrkyYhtF-228" value="If control is true, output is true." style="text;html=1;align=center;verticalAlign=middle;resizable=0;points=[];autosize=1;" parent="1" vertex="1">
          <mxGeometry x="380" y="1420" width="180" height="20" as="geometry" />
        </mxCell>
        <mxCell id="zt3W5hfZDn8HCrkyYhtF-229" value="" style="endArrow=none;dashed=1;html=1;" parent="1" edge="1">
          <mxGeometry width="50" height="50" relative="1" as="geometry">
            <mxPoint x="620" y="1530" as="sourcePoint" />
            <mxPoint x="750" y="1530" as="targetPoint" />
          </mxGeometry>
        </mxCell>
        <mxCell id="zt3W5hfZDn8HCrkyYhtF-230" value="" style="endArrow=none;dashed=1;html=1;" parent="1" edge="1">
          <mxGeometry width="50" height="50" relative="1" as="geometry">
            <mxPoint x="420" y="1530" as="sourcePoint" />
            <mxPoint x="540" y="1530" as="targetPoint" />
          </mxGeometry>
        </mxCell>
        <mxCell id="zt3W5hfZDn8HCrkyYhtF-231" value="0" style="text;html=1;align=center;verticalAlign=middle;resizable=0;points=[];autosize=1;" parent="1" vertex="1">
          <mxGeometry x="500" y="1350" width="20" height="20" as="geometry" />
        </mxCell>
        <mxCell id="zt3W5hfZDn8HCrkyYhtF-232" value="1" style="text;html=1;align=center;verticalAlign=middle;resizable=0;points=[];autosize=1;" parent="1" vertex="1">
          <mxGeometry x="160" y="1260" width="20" height="20" as="geometry" />
        </mxCell>
        <mxCell id="zt3W5hfZDn8HCrkyYhtF-233" value="1" style="text;html=1;align=center;verticalAlign=middle;resizable=0;points=[];autosize=1;" parent="1" vertex="1">
          <mxGeometry x="240" y="1340" width="20" height="20" as="geometry" />
        </mxCell>
        <mxCell id="zt3W5hfZDn8HCrkyYhtF-234" value="0" style="text;html=1;align=center;verticalAlign=middle;resizable=0;points=[];autosize=1;" parent="1" vertex="1">
          <mxGeometry x="240" y="1200" width="20" height="20" as="geometry" />
        </mxCell>
        <mxCell id="zt3W5hfZDn8HCrkyYhtF-235" value="1" style="text;html=1;align=center;verticalAlign=middle;resizable=0;points=[];autosize=1;" parent="1" vertex="1">
          <mxGeometry x="230" y="1400" width="20" height="20" as="geometry" />
        </mxCell>
        <mxCell id="zt3W5hfZDn8HCrkyYhtF-236" value="0" style="text;html=1;align=center;verticalAlign=middle;resizable=0;points=[];autosize=1;" parent="1" vertex="1">
          <mxGeometry x="240" y="1130" width="20" height="20" as="geometry" />
        </mxCell>
        <mxCell id="zt3W5hfZDn8HCrkyYhtF-237" value="A" style="text;html=1;strokeColor=none;fillColor=none;align=center;verticalAlign=middle;whiteSpace=wrap;rounded=0;" parent="1" vertex="1">
          <mxGeometry x="865" y="1450" width="40" height="20" as="geometry" />
        </mxCell>
        <mxCell id="zt3W5hfZDn8HCrkyYhtF-238" value="C" style="text;html=1;align=center;verticalAlign=middle;resizable=0;points=[];autosize=1;" parent="1" vertex="1">
          <mxGeometry x="915" y="1450" width="20" height="20" as="geometry" />
        </mxCell>
        <mxCell id="zt3W5hfZDn8HCrkyYhtF-239" value="Enabled Latch" style="text;html=1;align=center;verticalAlign=middle;resizable=0;points=[];autosize=1;" parent="1" vertex="1">
          <mxGeometry x="950" y="1450" width="90" height="20" as="geometry" />
        </mxCell>
        <mxCell id="zt3W5hfZDn8HCrkyYhtF-240" value="" style="endArrow=none;html=1;" parent="1" edge="1">
          <mxGeometry width="50" height="50" relative="1" as="geometry">
            <mxPoint x="830" y="1469" as="sourcePoint" />
            <mxPoint x="1050" y="1469" as="targetPoint" />
          </mxGeometry>
        </mxCell>
        <mxCell id="zt3W5hfZDn8HCrkyYhtF-241" value="" style="endArrow=none;html=1;" parent="1" edge="1">
          <mxGeometry width="50" height="50" relative="1" as="geometry">
            <mxPoint x="945" y="1610" as="sourcePoint" />
            <mxPoint x="945" y="1450" as="targetPoint" />
          </mxGeometry>
        </mxCell>
        <mxCell id="zt3W5hfZDn8HCrkyYhtF-242" value="0" style="text;html=1;align=center;verticalAlign=middle;resizable=0;points=[];autosize=1;" parent="1" vertex="1">
          <mxGeometry x="875" y="1470" width="20" height="20" as="geometry" />
        </mxCell>
        <mxCell id="zt3W5hfZDn8HCrkyYhtF-243" value="1" style="text;html=1;align=center;verticalAlign=middle;resizable=0;points=[];autosize=1;" parent="1" vertex="1">
          <mxGeometry x="915" y="1470" width="20" height="20" as="geometry" />
        </mxCell>
        <mxCell id="zt3W5hfZDn8HCrkyYhtF-244" value="0" style="text;html=1;align=center;verticalAlign=middle;resizable=0;points=[];autosize=1;" parent="1" vertex="1">
          <mxGeometry x="980" y="1470" width="20" height="20" as="geometry" />
        </mxCell>
        <mxCell id="zt3W5hfZDn8HCrkyYhtF-245" value="0" style="text;html=1;align=center;verticalAlign=middle;resizable=0;points=[];autosize=1;" parent="1" vertex="1">
          <mxGeometry x="875" y="1500" width="20" height="20" as="geometry" />
        </mxCell>
        <mxCell id="zt3W5hfZDn8HCrkyYhtF-250" value="0" style="text;html=1;align=center;verticalAlign=middle;resizable=0;points=[];autosize=1;" parent="1" vertex="1">
          <mxGeometry x="915" y="1500" width="20" height="20" as="geometry" />
        </mxCell>
        <mxCell id="zt3W5hfZDn8HCrkyYhtF-251" value="&lt;div&gt;memory&lt;/div&gt;" style="text;html=1;align=center;verticalAlign=middle;resizable=0;points=[];autosize=1;" parent="1" vertex="1">
          <mxGeometry x="960" y="1500" width="60" height="20" as="geometry" />
        </mxCell>
        <mxCell id="zt3W5hfZDn8HCrkyYhtF-255" value="0" style="text;html=1;align=center;verticalAlign=middle;resizable=0;points=[];autosize=1;" parent="1" vertex="1">
          <mxGeometry x="715" y="1210" width="20" height="20" as="geometry" />
        </mxCell>
        <mxCell id="zt3W5hfZDn8HCrkyYhtF-256" value="1" style="text;html=1;align=center;verticalAlign=middle;resizable=0;points=[];autosize=1;" parent="1" vertex="1">
          <mxGeometry x="715" y="1360" width="20" height="20" as="geometry" />
        </mxCell>
        <mxCell id="zt3W5hfZDn8HCrkyYhtF-257" value="1" style="text;html=1;align=center;verticalAlign=middle;resizable=0;points=[];autosize=1;" parent="1" vertex="1">
          <mxGeometry x="875" y="1530" width="20" height="20" as="geometry" />
        </mxCell>
        <mxCell id="zt3W5hfZDn8HCrkyYhtF-258" value="0" style="text;html=1;align=center;verticalAlign=middle;resizable=0;points=[];autosize=1;" parent="1" vertex="1">
          <mxGeometry x="915" y="1530" width="20" height="20" as="geometry" />
        </mxCell>
        <mxCell id="zt3W5hfZDn8HCrkyYhtF-259" value="E" style="text;html=1;align=center;verticalAlign=middle;resizable=0;points=[];autosize=1;" parent="1" vertex="1">
          <mxGeometry x="840" y="1450" width="20" height="20" as="geometry" />
        </mxCell>
        <mxCell id="zt3W5hfZDn8HCrkyYhtF-260" value="1" style="text;html=1;align=center;verticalAlign=middle;resizable=0;points=[];autosize=1;" parent="1" vertex="1">
          <mxGeometry x="840" y="1470" width="20" height="20" as="geometry" />
        </mxCell>
        <mxCell id="zt3W5hfZDn8HCrkyYhtF-261" value="1" style="text;html=1;align=center;verticalAlign=middle;resizable=0;points=[];autosize=1;" parent="1" vertex="1">
          <mxGeometry x="840" y="1500" width="20" height="20" as="geometry" />
        </mxCell>
        <mxCell id="zt3W5hfZDn8HCrkyYhtF-262" value="1" style="text;html=1;align=center;verticalAlign=middle;resizable=0;points=[];autosize=1;" parent="1" vertex="1">
          <mxGeometry x="840" y="1530" width="20" height="20" as="geometry" />
        </mxCell>
        <mxCell id="zt3W5hfZDn8HCrkyYhtF-263" value="1" style="text;html=1;align=center;verticalAlign=middle;resizable=0;points=[];autosize=1;" parent="1" vertex="1">
          <mxGeometry x="840" y="1560" width="20" height="20" as="geometry" />
        </mxCell>
        <mxCell id="zt3W5hfZDn8HCrkyYhtF-264" value="1" style="text;html=1;align=center;verticalAlign=middle;resizable=0;points=[];autosize=1;" parent="1" vertex="1">
          <mxGeometry x="980" y="1530" width="20" height="20" as="geometry" />
        </mxCell>
        <mxCell id="zt3W5hfZDn8HCrkyYhtF-265" value="0" style="text;html=1;align=center;verticalAlign=middle;resizable=0;points=[];autosize=1;" parent="1" vertex="1">
          <mxGeometry x="875" y="1560" width="20" height="20" as="geometry" />
        </mxCell>
        <mxCell id="zt3W5hfZDn8HCrkyYhtF-266" value="0" style="text;html=1;align=center;verticalAlign=middle;resizable=0;points=[];autosize=1;" parent="1" vertex="1">
          <mxGeometry x="915" y="1560" width="20" height="20" as="geometry" />
        </mxCell>
        <mxCell id="zt3W5hfZDn8HCrkyYhtF-267" value="memory" style="text;html=1;align=center;verticalAlign=middle;resizable=0;points=[];autosize=1;" parent="1" vertex="1">
          <mxGeometry x="960" y="1560" width="60" height="20" as="geometry" />
        </mxCell>
        <mxCell id="zt3W5hfZDn8HCrkyYhtF-268" value="0" style="text;html=1;align=center;verticalAlign=middle;resizable=0;points=[];autosize=1;" parent="1" vertex="1">
          <mxGeometry x="840" y="1590" width="20" height="20" as="geometry" />
        </mxCell>
        <mxCell id="zt3W5hfZDn8HCrkyYhtF-269" value="0" style="text;html=1;align=center;verticalAlign=middle;resizable=0;points=[];autosize=1;" parent="1" vertex="1">
          <mxGeometry x="875" y="1590" width="20" height="20" as="geometry" />
        </mxCell>
        <mxCell id="zt3W5hfZDn8HCrkyYhtF-270" value="0" style="text;html=1;align=center;verticalAlign=middle;resizable=0;points=[];autosize=1;" parent="1" vertex="1">
          <mxGeometry x="915" y="1590" width="20" height="20" as="geometry" />
        </mxCell>
        <mxCell id="zt3W5hfZDn8HCrkyYhtF-271" value="memory" style="text;html=1;align=center;verticalAlign=middle;resizable=0;points=[];autosize=1;" parent="1" vertex="1">
          <mxGeometry x="960" y="1590" width="60" height="20" as="geometry" />
        </mxCell>
        <mxCell id="KQF0FXppTSgp05QIdXJl-2" style="edgeStyle=orthogonalEdgeStyle;rounded=0;orthogonalLoop=1;jettySize=auto;html=1;exitX=1;exitY=0.5;exitDx=0;exitDy=0;exitPerimeter=0;entryX=0;entryY=0.25;entryDx=0;entryDy=0;entryPerimeter=0;" edge="1" parent="1" source="KQF0FXppTSgp05QIdXJl-4" target="KQF0FXppTSgp05QIdXJl-8">
          <mxGeometry relative="1" as="geometry">
            <Array as="points">
              <mxPoint x="-100" y="1180" />
              <mxPoint x="-100" y="1300" />
              <mxPoint x="-245" y="1300" />
              <mxPoint x="-245" y="1365" />
            </Array>
          </mxGeometry>
        </mxCell>
        <mxCell id="KQF0FXppTSgp05QIdXJl-3" style="edgeStyle=orthogonalEdgeStyle;rounded=0;orthogonalLoop=1;jettySize=auto;html=1;exitX=0;exitY=0.75;exitDx=0;exitDy=0;exitPerimeter=0;endArrow=none;endFill=0;" edge="1" parent="1" source="KQF0FXppTSgp05QIdXJl-4">
          <mxGeometry relative="1" as="geometry">
            <mxPoint x="-55" y="1410" as="targetPoint" />
            <Array as="points">
              <mxPoint x="-275" y="1235" />
              <mxPoint x="-275" y="1315" />
              <mxPoint x="-55" y="1315" />
            </Array>
          </mxGeometry>
        </mxCell>
        <mxCell id="KQF0FXppTSgp05QIdXJl-4" value="" style="verticalLabelPosition=bottom;shadow=0;dashed=0;align=center;html=1;verticalAlign=top;shape=mxgraph.electrical.logic_gates.logic_gate;operation=and;negating=1;" vertex="1" parent="1">
          <mxGeometry x="-215" y="1150" width="100" height="60" as="geometry" />
        </mxCell>
        <mxCell id="KQF0FXppTSgp05QIdXJl-5" style="edgeStyle=orthogonalEdgeStyle;rounded=0;orthogonalLoop=1;jettySize=auto;html=1;exitX=1;exitY=0.5;exitDx=0;exitDy=0;exitPerimeter=0;endArrow=none;endFill=0;" edge="1" parent="1" source="KQF0FXppTSgp05QIdXJl-8">
          <mxGeometry relative="1" as="geometry">
            <mxPoint x="-40" y="1410" as="targetPoint" />
          </mxGeometry>
        </mxCell>
        <mxCell id="KQF0FXppTSgp05QIdXJl-6" value="Q*" style="edgeLabel;html=1;align=center;verticalAlign=middle;resizable=0;points=[];" vertex="1" connectable="0" parent="KQF0FXppTSgp05QIdXJl-5">
          <mxGeometry x="0.7273" y="1" relative="1" as="geometry">
            <mxPoint x="19" y="-9" as="offset" />
          </mxGeometry>
        </mxCell>
        <mxCell id="KQF0FXppTSgp05QIdXJl-7" style="edgeStyle=orthogonalEdgeStyle;rounded=0;orthogonalLoop=1;jettySize=auto;html=1;exitX=0;exitY=0.75;exitDx=0;exitDy=0;exitPerimeter=0;endArrow=none;endFill=0;entryX=1;entryY=0.5;entryDx=0;entryDy=0;entryPerimeter=0;" edge="1" parent="1" source="KQF0FXppTSgp05QIdXJl-8" target="KQF0FXppTSgp05QIdXJl-18">
          <mxGeometry relative="1" as="geometry">
            <mxPoint x="-295" y="1395" as="targetPoint" />
          </mxGeometry>
        </mxCell>
        <mxCell id="KQF0FXppTSgp05QIdXJl-8" value="" style="verticalLabelPosition=bottom;shadow=0;dashed=0;align=center;html=1;verticalAlign=top;shape=mxgraph.electrical.logic_gates.logic_gate;operation=and;negating=1;" vertex="1" parent="1">
          <mxGeometry x="-225" y="1380" width="100" height="60" as="geometry" />
        </mxCell>
        <mxCell id="KQF0FXppTSgp05QIdXJl-9" value="" style="endArrow=none;html=1;entryX=0;entryY=0.25;entryDx=0;entryDy=0;entryPerimeter=0;exitX=1;exitY=0.5;exitDx=0;exitDy=0;exitPerimeter=0;" edge="1" parent="1" source="KQF0FXppTSgp05QIdXJl-20" target="KQF0FXppTSgp05QIdXJl-4">
          <mxGeometry width="50" height="50" relative="1" as="geometry">
            <mxPoint x="-350" y="1205" as="sourcePoint" />
            <mxPoint x="-240" y="1200" as="targetPoint" />
          </mxGeometry>
        </mxCell>
        <mxCell id="KQF0FXppTSgp05QIdXJl-10" value="S*" style="edgeLabel;html=1;align=center;verticalAlign=middle;resizable=0;points=[];" vertex="1" connectable="0" parent="KQF0FXppTSgp05QIdXJl-9">
          <mxGeometry x="-0.4727" relative="1" as="geometry">
            <mxPoint as="offset" />
          </mxGeometry>
        </mxCell>
        <mxCell id="KQF0FXppTSgp05QIdXJl-11" value="Q" style="text;html=1;align=center;verticalAlign=middle;resizable=0;points=[];autosize=1;" vertex="1" parent="1">
          <mxGeometry x="-20" y="1210" width="20" height="20" as="geometry" />
        </mxCell>
        <mxCell id="KQF0FXppTSgp05QIdXJl-12" value="1" style="text;html=1;align=center;verticalAlign=middle;resizable=0;points=[];autosize=1;" vertex="1" parent="1">
          <mxGeometry x="-390" y="1180" width="20" height="20" as="geometry" />
        </mxCell>
        <mxCell id="KQF0FXppTSgp05QIdXJl-13" value="1" style="text;html=1;align=center;verticalAlign=middle;resizable=0;points=[];autosize=1;" vertex="1" parent="1">
          <mxGeometry x="-135" y="1380" width="20" height="20" as="geometry" />
        </mxCell>
        <mxCell id="KQF0FXppTSgp05QIdXJl-14" value="0" style="text;html=1;align=center;verticalAlign=middle;resizable=0;points=[];autosize=1;" vertex="1" parent="1">
          <mxGeometry x="-125" y="1230" width="20" height="20" as="geometry" />
        </mxCell>
        <mxCell id="KQF0FXppTSgp05QIdXJl-15" value="0" style="text;html=1;align=center;verticalAlign=middle;resizable=0;points=[];autosize=1;" vertex="1" parent="1">
          <mxGeometry x="-315" y="1400" width="20" height="20" as="geometry" />
        </mxCell>
        <mxCell id="KQF0FXppTSgp05QIdXJl-16" value="R*" style="text;html=1;align=center;verticalAlign=middle;resizable=0;points=[];autosize=1;" vertex="1" parent="1">
          <mxGeometry x="-320" y="1380" width="30" height="20" as="geometry" />
        </mxCell>
        <mxCell id="KQF0FXppTSgp05QIdXJl-17" value="1" style="text;html=1;align=center;verticalAlign=middle;resizable=0;points=[];autosize=1;" vertex="1" parent="1">
          <mxGeometry x="-265" y="1220" width="20" height="20" as="geometry" />
        </mxCell>
        <mxCell id="KQF0FXppTSgp05QIdXJl-18" value="" style="verticalLabelPosition=bottom;shadow=0;dashed=0;align=center;html=1;verticalAlign=top;shape=mxgraph.electrical.logic_gates.logic_gate;operation=and;negating=1;" vertex="1" parent="1">
          <mxGeometry x="-485" y="1370" width="100" height="60" as="geometry" />
        </mxCell>
        <mxCell id="KQF0FXppTSgp05QIdXJl-19" style="edgeStyle=orthogonalEdgeStyle;rounded=0;orthogonalLoop=1;jettySize=auto;html=1;exitX=0;exitY=0.75;exitDx=0;exitDy=0;exitPerimeter=0;entryX=0;entryY=0.25;entryDx=0;entryDy=0;entryPerimeter=0;endArrow=none;endFill=0;" edge="1" parent="1" source="KQF0FXppTSgp05QIdXJl-20" target="KQF0FXppTSgp05QIdXJl-18">
          <mxGeometry relative="1" as="geometry">
            <Array as="points">
              <mxPoint x="-525" y="1215" />
              <mxPoint x="-525" y="1385" />
            </Array>
          </mxGeometry>
        </mxCell>
        <mxCell id="KQF0FXppTSgp05QIdXJl-20" value="" style="verticalLabelPosition=bottom;shadow=0;dashed=0;align=center;html=1;verticalAlign=top;shape=mxgraph.electrical.logic_gates.logic_gate;operation=and;negating=1;" vertex="1" parent="1">
          <mxGeometry x="-495" y="1140" width="100" height="60" as="geometry" />
        </mxCell>
        <mxCell id="KQF0FXppTSgp05QIdXJl-21" value="S" style="text;html=1;align=center;verticalAlign=middle;resizable=0;points=[];autosize=1;" vertex="1" parent="1">
          <mxGeometry x="-505" y="1170" width="20" height="20" as="geometry" />
        </mxCell>
        <mxCell id="KQF0FXppTSgp05QIdXJl-22" value="R" style="text;html=1;align=center;verticalAlign=middle;resizable=0;points=[];autosize=1;" vertex="1" parent="1">
          <mxGeometry x="-505" y="1400" width="20" height="20" as="geometry" />
        </mxCell>
        <mxCell id="KQF0FXppTSgp05QIdXJl-23" value="" style="endArrow=none;html=1;" edge="1" parent="1">
          <mxGeometry width="50" height="50" relative="1" as="geometry">
            <mxPoint x="-595" y="1305" as="sourcePoint" />
            <mxPoint x="-525" y="1305" as="targetPoint" />
            <Array as="points" />
          </mxGeometry>
        </mxCell>
        <mxCell id="KQF0FXppTSgp05QIdXJl-24" value="E" style="text;html=1;align=center;verticalAlign=middle;resizable=0;points=[];autosize=1;" vertex="1" parent="1">
          <mxGeometry x="-615" y="1295" width="20" height="20" as="geometry" />
        </mxCell>
        <mxCell id="KQF0FXppTSgp05QIdXJl-25" value="0" style="text;html=1;align=center;verticalAlign=middle;resizable=0;points=[];autosize=1;" vertex="1" parent="1">
          <mxGeometry x="-235" y="1370" width="20" height="20" as="geometry" />
        </mxCell>
        <mxCell id="KQF0FXppTSgp05QIdXJl-26" value="1" style="text;html=1;align=center;verticalAlign=middle;resizable=0;points=[];autosize=1;" vertex="1" parent="1">
          <mxGeometry x="-575" y="1280" width="20" height="20" as="geometry" />
        </mxCell>
        <mxCell id="KQF0FXppTSgp05QIdXJl-27" value="1" style="text;html=1;align=center;verticalAlign=middle;resizable=0;points=[];autosize=1;" vertex="1" parent="1">
          <mxGeometry x="-495" y="1360" width="20" height="20" as="geometry" />
        </mxCell>
        <mxCell id="KQF0FXppTSgp05QIdXJl-28" value="0" style="text;html=1;align=center;verticalAlign=middle;resizable=0;points=[];autosize=1;" vertex="1" parent="1">
          <mxGeometry x="-495" y="1220" width="20" height="20" as="geometry" />
        </mxCell>
        <mxCell id="KQF0FXppTSgp05QIdXJl-29" value="0" style="text;html=1;align=center;verticalAlign=middle;resizable=0;points=[];autosize=1;" vertex="1" parent="1">
          <mxGeometry x="-495" y="1150" width="20" height="20" as="geometry" />
        </mxCell>
        <mxCell id="KQF0FXppTSgp05QIdXJl-30" value="0" style="text;html=1;align=center;verticalAlign=middle;resizable=0;points=[];autosize=1;" vertex="1" parent="1">
          <mxGeometry x="-20" y="1230" width="20" height="20" as="geometry" />
        </mxCell>
        <mxCell id="KQF0FXppTSgp05QIdXJl-31" value="1" style="text;html=1;align=center;verticalAlign=middle;resizable=0;points=[];autosize=1;" vertex="1" parent="1">
          <mxGeometry x="-20" y="1380" width="20" height="20" as="geometry" />
        </mxCell>
        <mxCell id="KQF0FXppTSgp05QIdXJl-33" value="" style="endArrow=none;html=1;entryX=0;entryY=0.25;entryDx=0;entryDy=0;entryPerimeter=0;" edge="1" parent="1" target="zt3W5hfZDn8HCrkyYhtF-182">
          <mxGeometry width="50" height="50" relative="1" as="geometry">
            <mxPoint x="-100" y="1180" as="sourcePoint" />
            <mxPoint x="-100" y="1160" as="targetPoint" />
          </mxGeometry>
        </mxCell>
        <mxCell id="KQF0FXppTSgp05QIdXJl-36" value="" style="endArrow=none;html=1;entryX=0;entryY=0.75;entryDx=0;entryDy=0;entryPerimeter=0;" edge="1" parent="1" target="zt3W5hfZDn8HCrkyYhtF-181">
          <mxGeometry width="50" height="50" relative="1" as="geometry">
            <mxPoint x="-40" y="1410" as="sourcePoint" />
            <mxPoint x="115" y="1370" as="targetPoint" />
          </mxGeometry>
        </mxCell>
        <mxCell id="KQF0FXppTSgp05QIdXJl-39" value="" style="endArrow=none;html=1;" edge="1" parent="1">
          <mxGeometry width="50" height="50" relative="1" as="geometry">
            <mxPoint x="150" y="1480" as="sourcePoint" />
            <mxPoint x="150" y="1290" as="targetPoint" />
          </mxGeometry>
        </mxCell>
        <mxCell id="KQF0FXppTSgp05QIdXJl-40" value="" style="endArrow=none;html=1;" edge="1" parent="1" source="KQF0FXppTSgp05QIdXJl-77">
          <mxGeometry width="50" height="50" relative="1" as="geometry">
            <mxPoint x="-570" y="1480" as="sourcePoint" />
            <mxPoint x="150" y="1480" as="targetPoint" />
          </mxGeometry>
        </mxCell>
        <mxCell id="KQF0FXppTSgp05QIdXJl-41" value="" style="endArrow=none;html=1;entryX=0.2;entryY=1.15;entryDx=0;entryDy=0;entryPerimeter=0;" edge="1" parent="1" target="KQF0FXppTSgp05QIdXJl-26">
          <mxGeometry width="50" height="50" relative="1" as="geometry">
            <mxPoint x="-570" y="1480" as="sourcePoint" />
            <mxPoint x="-570" y="1310" as="targetPoint" />
          </mxGeometry>
        </mxCell>
        <mxCell id="KQF0FXppTSgp05QIdXJl-42" value="SR NAND Latch" style="whiteSpace=wrap;html=1;aspect=fixed;" vertex="1" parent="1">
          <mxGeometry x="-30" y="1580" width="120" height="120" as="geometry" />
        </mxCell>
        <mxCell id="KQF0FXppTSgp05QIdXJl-43" value="SR NAND Latch" style="whiteSpace=wrap;html=1;aspect=fixed;" vertex="1" parent="1">
          <mxGeometry x="175" y="1580" width="120" height="120" as="geometry" />
        </mxCell>
        <mxCell id="KQF0FXppTSgp05QIdXJl-47" value="Q" style="text;html=1;strokeColor=none;fillColor=none;align=center;verticalAlign=middle;whiteSpace=wrap;rounded=0;" vertex="1" parent="1">
          <mxGeometry x="50" y="1580" width="40" height="20" as="geometry" />
        </mxCell>
        <mxCell id="KQF0FXppTSgp05QIdXJl-65" value="" style="edgeStyle=orthogonalEdgeStyle;rounded=0;orthogonalLoop=1;jettySize=auto;html=1;" edge="1" parent="1" source="KQF0FXppTSgp05QIdXJl-49" target="KQF0FXppTSgp05QIdXJl-57">
          <mxGeometry relative="1" as="geometry" />
        </mxCell>
        <mxCell id="KQF0FXppTSgp05QIdXJl-49" value="Q*" style="text;html=1;strokeColor=none;fillColor=none;align=center;verticalAlign=middle;whiteSpace=wrap;rounded=0;" vertex="1" parent="1">
          <mxGeometry x="50" y="1680" width="40" height="20" as="geometry" />
        </mxCell>
        <mxCell id="KQF0FXppTSgp05QIdXJl-50" value="" style="endArrow=classic;html=1;exitX=1;exitY=0.5;exitDx=0;exitDy=0;" edge="1" parent="1" source="KQF0FXppTSgp05QIdXJl-47" target="KQF0FXppTSgp05QIdXJl-56">
          <mxGeometry width="50" height="50" relative="1" as="geometry">
            <mxPoint x="175" y="1560" as="sourcePoint" />
            <mxPoint x="173" y="1592" as="targetPoint" />
          </mxGeometry>
        </mxCell>
        <mxCell id="KQF0FXppTSgp05QIdXJl-52" value="" style="endArrow=none;html=1;" edge="1" parent="1">
          <mxGeometry width="50" height="50" relative="1" as="geometry">
            <mxPoint x="-105" y="1610" as="sourcePoint" />
            <mxPoint x="-30" y="1610" as="targetPoint" />
          </mxGeometry>
        </mxCell>
        <mxCell id="KQF0FXppTSgp05QIdXJl-53" value="" style="endArrow=none;html=1;" edge="1" parent="1">
          <mxGeometry width="50" height="50" relative="1" as="geometry">
            <mxPoint x="-105" y="1670" as="sourcePoint" />
            <mxPoint x="-30" y="1670" as="targetPoint" />
          </mxGeometry>
        </mxCell>
        <mxCell id="KQF0FXppTSgp05QIdXJl-54" value="" style="endArrow=classic;html=1;" edge="1" parent="1">
          <mxGeometry width="50" height="50" relative="1" as="geometry">
            <mxPoint x="295" y="1610" as="sourcePoint" />
            <mxPoint x="375" y="1610" as="targetPoint" />
          </mxGeometry>
        </mxCell>
        <mxCell id="KQF0FXppTSgp05QIdXJl-55" value="" style="endArrow=classic;html=1;exitX=1;exitY=0.75;exitDx=0;exitDy=0;" edge="1" parent="1" source="KQF0FXppTSgp05QIdXJl-43">
          <mxGeometry width="50" height="50" relative="1" as="geometry">
            <mxPoint x="175" y="1560" as="sourcePoint" />
            <mxPoint x="375" y="1670" as="targetPoint" />
          </mxGeometry>
        </mxCell>
        <mxCell id="KQF0FXppTSgp05QIdXJl-56" value="S" style="text;html=1;strokeColor=none;fillColor=none;align=center;verticalAlign=middle;whiteSpace=wrap;rounded=0;" vertex="1" parent="1">
          <mxGeometry x="175" y="1580" width="40" height="20" as="geometry" />
        </mxCell>
        <mxCell id="KQF0FXppTSgp05QIdXJl-57" value="R" style="text;html=1;strokeColor=none;fillColor=none;align=center;verticalAlign=middle;whiteSpace=wrap;rounded=0;" vertex="1" parent="1">
          <mxGeometry x="175" y="1680" width="40" height="20" as="geometry" />
        </mxCell>
        <mxCell id="KQF0FXppTSgp05QIdXJl-62" value="" style="verticalLabelPosition=bottom;shadow=0;dashed=0;align=center;html=1;verticalAlign=top;shape=mxgraph.electrical.logic_gates.synchronous_rs_latch;" vertex="1" parent="1">
          <mxGeometry x="160" y="1800" width="100" height="80" as="geometry" />
        </mxCell>
        <mxCell id="KQF0FXppTSgp05QIdXJl-63" value="" style="verticalLabelPosition=bottom;shadow=0;dashed=0;align=center;html=1;verticalAlign=top;shape=mxgraph.electrical.logic_gates.synchronous_rs_latch;" vertex="1" parent="1">
          <mxGeometry x="-10" y="1800" width="100" height="80" as="geometry" />
        </mxCell>
        <mxCell id="KQF0FXppTSgp05QIdXJl-66" value="" style="endArrow=none;html=1;" edge="1" parent="1">
          <mxGeometry width="50" height="50" relative="1" as="geometry">
            <mxPoint x="240" y="1760" as="sourcePoint" />
            <mxPoint x="240" y="1700" as="targetPoint" />
          </mxGeometry>
        </mxCell>
        <mxCell id="KQF0FXppTSgp05QIdXJl-67" value="" style="endArrow=none;html=1;" edge="1" parent="1">
          <mxGeometry width="50" height="50" relative="1" as="geometry">
            <mxPoint x="-100" y="1760" as="sourcePoint" />
            <mxPoint x="240" y="1760" as="targetPoint" />
          </mxGeometry>
        </mxCell>
        <mxCell id="KQF0FXppTSgp05QIdXJl-68" value="" style="endArrow=none;html=1;" edge="1" parent="1">
          <mxGeometry width="50" height="50" relative="1" as="geometry">
            <mxPoint x="30" y="1760" as="sourcePoint" />
            <mxPoint x="30" y="1700" as="targetPoint" />
          </mxGeometry>
        </mxCell>
        <mxCell id="KQF0FXppTSgp05QIdXJl-69" value="Q*" style="text;html=1;align=center;verticalAlign=middle;resizable=0;points=[];autosize=1;" vertex="1" parent="1">
          <mxGeometry x="375" y="1660" width="30" height="20" as="geometry" />
        </mxCell>
        <mxCell id="KQF0FXppTSgp05QIdXJl-70" value="Q" style="text;html=1;align=center;verticalAlign=middle;resizable=0;points=[];autosize=1;" vertex="1" parent="1">
          <mxGeometry x="380" y="1600" width="20" height="20" as="geometry" />
        </mxCell>
        <mxCell id="KQF0FXppTSgp05QIdXJl-71" value="S" style="text;html=1;align=center;verticalAlign=middle;resizable=0;points=[];autosize=1;" vertex="1" parent="1">
          <mxGeometry x="-130" y="1600" width="20" height="20" as="geometry" />
        </mxCell>
        <mxCell id="KQF0FXppTSgp05QIdXJl-72" value="R" style="text;html=1;align=center;verticalAlign=middle;resizable=0;points=[];autosize=1;" vertex="1" parent="1">
          <mxGeometry x="-130" y="1660" width="20" height="20" as="geometry" />
        </mxCell>
        <mxCell id="KQF0FXppTSgp05QIdXJl-73" value="Enable" style="text;html=1;align=center;verticalAlign=middle;resizable=0;points=[];autosize=1;" vertex="1" parent="1">
          <mxGeometry x="-145" y="1750" width="50" height="20" as="geometry" />
        </mxCell>
        <mxCell id="KQF0FXppTSgp05QIdXJl-74" value="Enable" style="text;html=1;align=center;verticalAlign=middle;resizable=0;points=[];autosize=1;" vertex="1" parent="1">
          <mxGeometry y="1680" width="50" height="20" as="geometry" />
        </mxCell>
        <mxCell id="KQF0FXppTSgp05QIdXJl-75" value="Enable" style="text;html=1;align=center;verticalAlign=middle;resizable=0;points=[];autosize=1;" vertex="1" parent="1">
          <mxGeometry x="215" y="1680" width="50" height="20" as="geometry" />
        </mxCell>
        <mxCell id="KQF0FXppTSgp05QIdXJl-76" value="" style="verticalLabelPosition=bottom;shadow=0;dashed=0;align=center;html=1;verticalAlign=top;shape=mxgraph.electrical.logic_gates.buffer2;negating=1;" vertex="1" parent="1">
          <mxGeometry x="80" y="1730" width="100" height="60" as="geometry" />
        </mxCell>
        <mxCell id="KQF0FXppTSgp05QIdXJl-77" value="" style="verticalLabelPosition=bottom;shadow=0;dashed=0;align=center;html=1;verticalAlign=top;shape=mxgraph.electrical.logic_gates.buffer2;negating=1;" vertex="1" parent="1">
          <mxGeometry x="-150" y="1450" width="100" height="60" as="geometry" />
        </mxCell>
        <mxCell id="KQF0FXppTSgp05QIdXJl-78" value="" style="endArrow=none;html=1;" edge="1" parent="1" target="KQF0FXppTSgp05QIdXJl-77">
          <mxGeometry width="50" height="50" relative="1" as="geometry">
            <mxPoint x="-570" y="1480" as="sourcePoint" />
            <mxPoint x="150" y="1480" as="targetPoint" />
          </mxGeometry>
        </mxCell>
        <mxCell id="KQF0FXppTSgp05QIdXJl-79" value="SR NAND Latch" style="text;html=1;align=center;verticalAlign=middle;resizable=0;points=[];autosize=1;" vertex="1" parent="1">
          <mxGeometry x="-460" y="1280" width="100" height="20" as="geometry" />
        </mxCell>
        <mxCell id="KQF0FXppTSgp05QIdXJl-80" value="SR NAND Latch" style="text;html=1;align=center;verticalAlign=middle;resizable=0;points=[];autosize=1;" vertex="1" parent="1">
          <mxGeometry x="300" y="1270" width="100" height="20" as="geometry" />
        </mxCell>
      </root>
    </mxGraphModel>
  </diagram>
</mxfile>
